%TF.GenerationSoftware,KiCad,Pcbnew,9.0.1*%
%TF.CreationDate,2025-04-30T14:28:43+02:00*%
%TF.ProjectId,Controller,436f6e74-726f-46c6-9c65-722e6b696361,rev?*%
%TF.SameCoordinates,Original*%
%TF.FileFunction,Legend,Top*%
%TF.FilePolarity,Positive*%
%FSLAX46Y46*%
G04 Gerber Fmt 4.6, Leading zero omitted, Abs format (unit mm)*
G04 Created by KiCad (PCBNEW 9.0.1) date 2025-04-30 14:28:43*
%MOMM*%
%LPD*%
G01*
G04 APERTURE LIST*
%ADD10C,0.100000*%
%ADD11C,0.150000*%
%ADD12C,0.120000*%
%ADD13C,0.140000*%
G04 APERTURE END LIST*
D10*
X86892580Y-33925714D02*
X87892580Y-33925714D01*
X87892580Y-33925714D02*
X87892580Y-34163809D01*
X87892580Y-34163809D02*
X87844961Y-34306666D01*
X87844961Y-34306666D02*
X87749723Y-34401904D01*
X87749723Y-34401904D02*
X87654485Y-34449523D01*
X87654485Y-34449523D02*
X87464009Y-34497142D01*
X87464009Y-34497142D02*
X87321152Y-34497142D01*
X87321152Y-34497142D02*
X87130676Y-34449523D01*
X87130676Y-34449523D02*
X87035438Y-34401904D01*
X87035438Y-34401904D02*
X86940200Y-34306666D01*
X86940200Y-34306666D02*
X86892580Y-34163809D01*
X86892580Y-34163809D02*
X86892580Y-33925714D01*
X86892580Y-34925714D02*
X87892580Y-34925714D01*
X86940200Y-35354285D02*
X86892580Y-35497142D01*
X86892580Y-35497142D02*
X86892580Y-35735237D01*
X86892580Y-35735237D02*
X86940200Y-35830475D01*
X86940200Y-35830475D02*
X86987819Y-35878094D01*
X86987819Y-35878094D02*
X87083057Y-35925713D01*
X87083057Y-35925713D02*
X87178295Y-35925713D01*
X87178295Y-35925713D02*
X87273533Y-35878094D01*
X87273533Y-35878094D02*
X87321152Y-35830475D01*
X87321152Y-35830475D02*
X87368771Y-35735237D01*
X87368771Y-35735237D02*
X87416390Y-35544761D01*
X87416390Y-35544761D02*
X87464009Y-35449523D01*
X87464009Y-35449523D02*
X87511628Y-35401904D01*
X87511628Y-35401904D02*
X87606866Y-35354285D01*
X87606866Y-35354285D02*
X87702104Y-35354285D01*
X87702104Y-35354285D02*
X87797342Y-35401904D01*
X87797342Y-35401904D02*
X87844961Y-35449523D01*
X87844961Y-35449523D02*
X87892580Y-35544761D01*
X87892580Y-35544761D02*
X87892580Y-35782856D01*
X87892580Y-35782856D02*
X87844961Y-35925713D01*
X86892580Y-36354285D02*
X87892580Y-36354285D01*
X87892580Y-36354285D02*
X87892580Y-36735237D01*
X87892580Y-36735237D02*
X87844961Y-36830475D01*
X87844961Y-36830475D02*
X87797342Y-36878094D01*
X87797342Y-36878094D02*
X87702104Y-36925713D01*
X87702104Y-36925713D02*
X87559247Y-36925713D01*
X87559247Y-36925713D02*
X87464009Y-36878094D01*
X87464009Y-36878094D02*
X87416390Y-36830475D01*
X87416390Y-36830475D02*
X87368771Y-36735237D01*
X87368771Y-36735237D02*
X87368771Y-36354285D01*
X86892580Y-37830475D02*
X86892580Y-37354285D01*
X86892580Y-37354285D02*
X87892580Y-37354285D01*
X87178295Y-38116190D02*
X87178295Y-38592380D01*
X86892580Y-38020952D02*
X87892580Y-38354285D01*
X87892580Y-38354285D02*
X86892580Y-38687618D01*
X87368771Y-39211428D02*
X86892580Y-39211428D01*
X87892580Y-38878095D02*
X87368771Y-39211428D01*
X87368771Y-39211428D02*
X87892580Y-39544761D01*
X86892580Y-40401904D02*
X86892580Y-39830476D01*
X86892580Y-40116190D02*
X87892580Y-40116190D01*
X87892580Y-40116190D02*
X87749723Y-40020952D01*
X87749723Y-40020952D02*
X87654485Y-39925714D01*
X87654485Y-39925714D02*
X87606866Y-39830476D01*
D11*
X85229131Y-49237998D02*
X85202194Y-49157185D01*
X85202194Y-49157185D02*
X85121381Y-49076373D01*
X85121381Y-49076373D02*
X85013632Y-49022498D01*
X85013632Y-49022498D02*
X84905882Y-49022498D01*
X84905882Y-49022498D02*
X84825070Y-49049436D01*
X84825070Y-49049436D02*
X84690383Y-49130248D01*
X84690383Y-49130248D02*
X84609571Y-49211060D01*
X84609571Y-49211060D02*
X84528758Y-49345747D01*
X84528758Y-49345747D02*
X84501821Y-49426560D01*
X84501821Y-49426560D02*
X84501821Y-49534309D01*
X84501821Y-49534309D02*
X84555696Y-49642059D01*
X84555696Y-49642059D02*
X84609571Y-49695934D01*
X84609571Y-49695934D02*
X84717320Y-49749808D01*
X84717320Y-49749808D02*
X84771195Y-49749808D01*
X84771195Y-49749808D02*
X84959757Y-49561247D01*
X84959757Y-49561247D02*
X84852007Y-49453497D01*
X84959757Y-50046120D02*
X85525442Y-49480434D01*
X85525442Y-49480434D02*
X85740942Y-49695934D01*
X85740942Y-49695934D02*
X85767879Y-49776746D01*
X85767879Y-49776746D02*
X85767879Y-49830621D01*
X85767879Y-49830621D02*
X85740942Y-49911433D01*
X85740942Y-49911433D02*
X85660129Y-49992245D01*
X85660129Y-49992245D02*
X85579317Y-50019182D01*
X85579317Y-50019182D02*
X85525442Y-50019182D01*
X85525442Y-50019182D02*
X85444630Y-49992245D01*
X85444630Y-49992245D02*
X85229131Y-49776746D01*
X86010316Y-50073057D02*
X86064190Y-50073057D01*
X86064190Y-50073057D02*
X86145003Y-50099995D01*
X86145003Y-50099995D02*
X86279690Y-50234682D01*
X86279690Y-50234682D02*
X86306627Y-50315494D01*
X86306627Y-50315494D02*
X86306627Y-50369369D01*
X86306627Y-50369369D02*
X86279690Y-50450181D01*
X86279690Y-50450181D02*
X86225815Y-50504056D01*
X86225815Y-50504056D02*
X86118065Y-50557930D01*
X86118065Y-50557930D02*
X85471568Y-50557930D01*
X85471568Y-50557930D02*
X85821754Y-50908117D01*
X86872313Y-50827305D02*
X86764563Y-50719555D01*
X86764563Y-50719555D02*
X86683751Y-50692618D01*
X86683751Y-50692618D02*
X86629876Y-50692618D01*
X86629876Y-50692618D02*
X86495189Y-50719555D01*
X86495189Y-50719555D02*
X86360502Y-50800367D01*
X86360502Y-50800367D02*
X86145003Y-51015866D01*
X86145003Y-51015866D02*
X86118065Y-51096679D01*
X86118065Y-51096679D02*
X86118065Y-51150553D01*
X86118065Y-51150553D02*
X86145003Y-51231366D01*
X86145003Y-51231366D02*
X86252752Y-51339115D01*
X86252752Y-51339115D02*
X86333565Y-51366053D01*
X86333565Y-51366053D02*
X86387439Y-51366053D01*
X86387439Y-51366053D02*
X86468252Y-51339115D01*
X86468252Y-51339115D02*
X86602939Y-51204428D01*
X86602939Y-51204428D02*
X86629876Y-51123616D01*
X86629876Y-51123616D02*
X86629876Y-51069741D01*
X86629876Y-51069741D02*
X86602939Y-50988929D01*
X86602939Y-50988929D02*
X86495189Y-50881179D01*
X86495189Y-50881179D02*
X86414377Y-50854242D01*
X86414377Y-50854242D02*
X86360502Y-50854242D01*
X86360502Y-50854242D02*
X86279690Y-50881179D01*
X90551568Y-23626435D02*
X90524631Y-23545623D01*
X90524631Y-23545623D02*
X90443819Y-23464811D01*
X90443819Y-23464811D02*
X90336069Y-23410936D01*
X90336069Y-23410936D02*
X90228319Y-23410936D01*
X90228319Y-23410936D02*
X90147507Y-23437873D01*
X90147507Y-23437873D02*
X90012820Y-23518685D01*
X90012820Y-23518685D02*
X89932008Y-23599498D01*
X89932008Y-23599498D02*
X89851196Y-23734185D01*
X89851196Y-23734185D02*
X89824258Y-23814997D01*
X89824258Y-23814997D02*
X89824258Y-23922746D01*
X89824258Y-23922746D02*
X89878133Y-24030496D01*
X89878133Y-24030496D02*
X89932008Y-24084371D01*
X89932008Y-24084371D02*
X90039758Y-24138246D01*
X90039758Y-24138246D02*
X90093632Y-24138246D01*
X90093632Y-24138246D02*
X90282194Y-23949684D01*
X90282194Y-23949684D02*
X90174445Y-23841934D01*
X90282194Y-24434557D02*
X90847880Y-23868872D01*
X90847880Y-23868872D02*
X90605443Y-24757806D01*
X90605443Y-24757806D02*
X91171128Y-24192120D01*
X90874817Y-25027180D02*
X91440502Y-24461494D01*
X91440502Y-24461494D02*
X91575189Y-24596181D01*
X91575189Y-24596181D02*
X91629064Y-24703931D01*
X91629064Y-24703931D02*
X91629064Y-24811680D01*
X91629064Y-24811680D02*
X91602127Y-24892493D01*
X91602127Y-24892493D02*
X91521314Y-25027180D01*
X91521314Y-25027180D02*
X91440502Y-25107992D01*
X91440502Y-25107992D02*
X91305815Y-25188804D01*
X91305815Y-25188804D02*
X91225003Y-25215741D01*
X91225003Y-25215741D02*
X91117253Y-25215741D01*
X91117253Y-25215741D02*
X91009504Y-25161867D01*
X91009504Y-25161867D02*
X90874817Y-25027180D01*
X107822414Y-49093406D02*
X107445290Y-49847653D01*
X107445290Y-49847653D02*
X108199537Y-49470529D01*
X108307287Y-50117027D02*
X108361161Y-50224776D01*
X108361161Y-50224776D02*
X108361161Y-50278651D01*
X108361161Y-50278651D02*
X108334224Y-50359463D01*
X108334224Y-50359463D02*
X108253412Y-50440276D01*
X108253412Y-50440276D02*
X108172600Y-50467213D01*
X108172600Y-50467213D02*
X108118725Y-50467213D01*
X108118725Y-50467213D02*
X108037913Y-50440276D01*
X108037913Y-50440276D02*
X107822413Y-50224776D01*
X107822413Y-50224776D02*
X108388099Y-49659091D01*
X108388099Y-49659091D02*
X108576661Y-49847653D01*
X108576661Y-49847653D02*
X108603598Y-49928465D01*
X108603598Y-49928465D02*
X108603598Y-49982340D01*
X108603598Y-49982340D02*
X108576661Y-50063152D01*
X108576661Y-50063152D02*
X108522786Y-50117027D01*
X108522786Y-50117027D02*
X108441974Y-50143964D01*
X108441974Y-50143964D02*
X108388099Y-50143964D01*
X108388099Y-50143964D02*
X108307287Y-50117027D01*
X108307287Y-50117027D02*
X108118725Y-49928465D01*
X108953784Y-50224776D02*
X108495848Y-50682712D01*
X108495848Y-50682712D02*
X108468911Y-50763524D01*
X108468911Y-50763524D02*
X108468911Y-50817399D01*
X108468911Y-50817399D02*
X108495848Y-50898211D01*
X108495848Y-50898211D02*
X108603598Y-51005961D01*
X108603598Y-51005961D02*
X108684410Y-51032898D01*
X108684410Y-51032898D02*
X108738285Y-51032898D01*
X108738285Y-51032898D02*
X108819097Y-51005961D01*
X108819097Y-51005961D02*
X109277033Y-50548025D01*
X108980722Y-51329210D02*
X109034596Y-51436959D01*
X109034596Y-51436959D02*
X109169283Y-51571646D01*
X109169283Y-51571646D02*
X109250096Y-51598584D01*
X109250096Y-51598584D02*
X109303970Y-51598584D01*
X109303970Y-51598584D02*
X109384783Y-51571646D01*
X109384783Y-51571646D02*
X109438657Y-51517771D01*
X109438657Y-51517771D02*
X109465595Y-51436959D01*
X109465595Y-51436959D02*
X109465595Y-51383084D01*
X109465595Y-51383084D02*
X109438657Y-51302272D01*
X109438657Y-51302272D02*
X109357845Y-51167585D01*
X109357845Y-51167585D02*
X109330908Y-51086773D01*
X109330908Y-51086773D02*
X109330908Y-51032898D01*
X109330908Y-51032898D02*
X109357845Y-50952086D01*
X109357845Y-50952086D02*
X109411720Y-50898211D01*
X109411720Y-50898211D02*
X109492532Y-50871274D01*
X109492532Y-50871274D02*
X109546407Y-50871274D01*
X109546407Y-50871274D02*
X109627219Y-50898211D01*
X109627219Y-50898211D02*
X109761906Y-51032898D01*
X109761906Y-51032898D02*
X109815781Y-51140648D01*
X72529131Y-22983998D02*
X72502194Y-22903185D01*
X72502194Y-22903185D02*
X72421381Y-22822373D01*
X72421381Y-22822373D02*
X72313632Y-22768498D01*
X72313632Y-22768498D02*
X72205882Y-22768498D01*
X72205882Y-22768498D02*
X72125070Y-22795436D01*
X72125070Y-22795436D02*
X71990383Y-22876248D01*
X71990383Y-22876248D02*
X71909571Y-22957060D01*
X71909571Y-22957060D02*
X71828758Y-23091747D01*
X71828758Y-23091747D02*
X71801821Y-23172560D01*
X71801821Y-23172560D02*
X71801821Y-23280309D01*
X71801821Y-23280309D02*
X71855696Y-23388059D01*
X71855696Y-23388059D02*
X71909571Y-23441934D01*
X71909571Y-23441934D02*
X72017320Y-23495808D01*
X72017320Y-23495808D02*
X72071195Y-23495808D01*
X72071195Y-23495808D02*
X72259757Y-23307247D01*
X72259757Y-23307247D02*
X72152007Y-23199497D01*
X72259757Y-23792120D02*
X72825442Y-23226434D01*
X72825442Y-23226434D02*
X73040942Y-23441934D01*
X73040942Y-23441934D02*
X73067879Y-23522746D01*
X73067879Y-23522746D02*
X73067879Y-23576621D01*
X73067879Y-23576621D02*
X73040942Y-23657433D01*
X73040942Y-23657433D02*
X72960129Y-23738245D01*
X72960129Y-23738245D02*
X72879317Y-23765182D01*
X72879317Y-23765182D02*
X72825442Y-23765182D01*
X72825442Y-23765182D02*
X72744630Y-23738245D01*
X72744630Y-23738245D02*
X72529131Y-23522746D01*
X73121754Y-24654117D02*
X72798505Y-24330868D01*
X72960129Y-24492492D02*
X73525815Y-23926807D01*
X73525815Y-23926807D02*
X73391128Y-23953744D01*
X73391128Y-23953744D02*
X73283378Y-23953744D01*
X73283378Y-23953744D02*
X73202566Y-23926807D01*
X73660502Y-25192865D02*
X73337253Y-24869616D01*
X73498878Y-25031240D02*
X74064563Y-24465555D01*
X74064563Y-24465555D02*
X73929876Y-24492492D01*
X73929876Y-24492492D02*
X73822126Y-24492492D01*
X73822126Y-24492492D02*
X73741314Y-24465555D01*
X100391415Y-49062407D02*
X100741601Y-49412593D01*
X100741601Y-49412593D02*
X100337540Y-49439531D01*
X100337540Y-49439531D02*
X100418353Y-49520343D01*
X100418353Y-49520343D02*
X100445290Y-49601155D01*
X100445290Y-49601155D02*
X100445290Y-49655030D01*
X100445290Y-49655030D02*
X100418353Y-49735842D01*
X100418353Y-49735842D02*
X100283666Y-49870529D01*
X100283666Y-49870529D02*
X100202853Y-49897467D01*
X100202853Y-49897467D02*
X100148979Y-49897467D01*
X100148979Y-49897467D02*
X100068166Y-49870529D01*
X100068166Y-49870529D02*
X99906542Y-49708905D01*
X99906542Y-49708905D02*
X99879605Y-49628093D01*
X99879605Y-49628093D02*
X99879605Y-49574218D01*
X100903226Y-49574218D02*
X100526102Y-50328465D01*
X100526102Y-50328465D02*
X101280350Y-49951342D01*
X101415036Y-50086028D02*
X101765223Y-50436215D01*
X101765223Y-50436215D02*
X101361162Y-50463152D01*
X101361162Y-50463152D02*
X101441974Y-50543964D01*
X101441974Y-50543964D02*
X101468911Y-50624776D01*
X101468911Y-50624776D02*
X101468911Y-50678651D01*
X101468911Y-50678651D02*
X101441974Y-50759464D01*
X101441974Y-50759464D02*
X101307287Y-50894151D01*
X101307287Y-50894151D02*
X101226475Y-50921088D01*
X101226475Y-50921088D02*
X101172600Y-50921088D01*
X101172600Y-50921088D02*
X101091788Y-50894151D01*
X101091788Y-50894151D02*
X100930163Y-50732526D01*
X100930163Y-50732526D02*
X100903226Y-50651714D01*
X100903226Y-50651714D02*
X100903226Y-50597839D01*
X101253412Y-51163525D02*
X101684411Y-51594523D01*
X102169284Y-51379024D02*
X102357846Y-51567586D01*
X102142347Y-51944709D02*
X101872973Y-51675335D01*
X101872973Y-51675335D02*
X102438658Y-51109650D01*
X102438658Y-51109650D02*
X102708032Y-51379024D01*
X102384784Y-52187146D02*
X102950469Y-51621461D01*
X102950469Y-51621461D02*
X102708032Y-52510395D01*
X102708032Y-52510395D02*
X103273718Y-51944710D01*
X97859131Y-49030123D02*
X98209317Y-49380309D01*
X98209317Y-49380309D02*
X97805256Y-49407247D01*
X97805256Y-49407247D02*
X97886068Y-49488059D01*
X97886068Y-49488059D02*
X97913006Y-49568871D01*
X97913006Y-49568871D02*
X97913006Y-49622746D01*
X97913006Y-49622746D02*
X97886068Y-49703558D01*
X97886068Y-49703558D02*
X97751381Y-49838245D01*
X97751381Y-49838245D02*
X97670569Y-49865182D01*
X97670569Y-49865182D02*
X97616694Y-49865182D01*
X97616694Y-49865182D02*
X97535882Y-49838245D01*
X97535882Y-49838245D02*
X97374258Y-49676621D01*
X97374258Y-49676621D02*
X97347320Y-49595808D01*
X97347320Y-49595808D02*
X97347320Y-49541934D01*
X98370942Y-49541934D02*
X97993818Y-50296181D01*
X97993818Y-50296181D02*
X98748065Y-49919057D01*
X98882752Y-50053744D02*
X99232938Y-50403930D01*
X99232938Y-50403930D02*
X98828877Y-50430868D01*
X98828877Y-50430868D02*
X98909690Y-50511680D01*
X98909690Y-50511680D02*
X98936627Y-50592492D01*
X98936627Y-50592492D02*
X98936627Y-50646367D01*
X98936627Y-50646367D02*
X98909690Y-50727179D01*
X98909690Y-50727179D02*
X98775003Y-50861866D01*
X98775003Y-50861866D02*
X98694190Y-50888804D01*
X98694190Y-50888804D02*
X98640316Y-50888804D01*
X98640316Y-50888804D02*
X98559503Y-50861866D01*
X98559503Y-50861866D02*
X98397879Y-50700242D01*
X98397879Y-50700242D02*
X98370942Y-50619430D01*
X98370942Y-50619430D02*
X98370942Y-50565555D01*
X100738505Y-23553372D02*
X100711568Y-23472560D01*
X100711568Y-23472560D02*
X100630756Y-23391748D01*
X100630756Y-23391748D02*
X100523006Y-23337873D01*
X100523006Y-23337873D02*
X100415257Y-23337873D01*
X100415257Y-23337873D02*
X100334444Y-23364810D01*
X100334444Y-23364810D02*
X100199757Y-23445623D01*
X100199757Y-23445623D02*
X100118945Y-23526435D01*
X100118945Y-23526435D02*
X100038133Y-23661122D01*
X100038133Y-23661122D02*
X100011196Y-23741934D01*
X100011196Y-23741934D02*
X100011196Y-23849684D01*
X100011196Y-23849684D02*
X100065070Y-23957433D01*
X100065070Y-23957433D02*
X100118945Y-24011308D01*
X100118945Y-24011308D02*
X100226695Y-24065183D01*
X100226695Y-24065183D02*
X100280570Y-24065183D01*
X100280570Y-24065183D02*
X100469131Y-23876621D01*
X100469131Y-23876621D02*
X100361382Y-23768871D01*
X100469131Y-24361494D02*
X101034817Y-23795809D01*
X101034817Y-23795809D02*
X101250316Y-24011308D01*
X101250316Y-24011308D02*
X101277253Y-24092120D01*
X101277253Y-24092120D02*
X101277253Y-24145995D01*
X101277253Y-24145995D02*
X101250316Y-24226807D01*
X101250316Y-24226807D02*
X101169504Y-24307619D01*
X101169504Y-24307619D02*
X101088692Y-24334557D01*
X101088692Y-24334557D02*
X101034817Y-24334557D01*
X101034817Y-24334557D02*
X100954005Y-24307619D01*
X100954005Y-24307619D02*
X100738505Y-24092120D01*
X101519690Y-24388432D02*
X101573565Y-24388432D01*
X101573565Y-24388432D02*
X101654377Y-24415369D01*
X101654377Y-24415369D02*
X101789064Y-24550056D01*
X101789064Y-24550056D02*
X101816001Y-24630868D01*
X101816001Y-24630868D02*
X101816001Y-24684743D01*
X101816001Y-24684743D02*
X101789064Y-24765555D01*
X101789064Y-24765555D02*
X101735189Y-24819430D01*
X101735189Y-24819430D02*
X101627440Y-24873305D01*
X101627440Y-24873305D02*
X100980942Y-24873305D01*
X100980942Y-24873305D02*
X101331128Y-25223491D01*
X80418505Y-23653372D02*
X80391568Y-23572560D01*
X80391568Y-23572560D02*
X80310756Y-23491748D01*
X80310756Y-23491748D02*
X80203006Y-23437873D01*
X80203006Y-23437873D02*
X80095257Y-23437873D01*
X80095257Y-23437873D02*
X80014444Y-23464810D01*
X80014444Y-23464810D02*
X79879757Y-23545623D01*
X79879757Y-23545623D02*
X79798945Y-23626435D01*
X79798945Y-23626435D02*
X79718133Y-23761122D01*
X79718133Y-23761122D02*
X79691196Y-23841934D01*
X79691196Y-23841934D02*
X79691196Y-23949684D01*
X79691196Y-23949684D02*
X79745070Y-24057433D01*
X79745070Y-24057433D02*
X79798945Y-24111308D01*
X79798945Y-24111308D02*
X79906695Y-24165183D01*
X79906695Y-24165183D02*
X79960570Y-24165183D01*
X79960570Y-24165183D02*
X80149131Y-23976621D01*
X80149131Y-23976621D02*
X80041382Y-23868871D01*
X80149131Y-24461494D02*
X80714817Y-23895809D01*
X80714817Y-23895809D02*
X80930316Y-24111308D01*
X80930316Y-24111308D02*
X80957253Y-24192120D01*
X80957253Y-24192120D02*
X80957253Y-24245995D01*
X80957253Y-24245995D02*
X80930316Y-24326807D01*
X80930316Y-24326807D02*
X80849504Y-24407619D01*
X80849504Y-24407619D02*
X80768692Y-24434557D01*
X80768692Y-24434557D02*
X80714817Y-24434557D01*
X80714817Y-24434557D02*
X80634005Y-24407619D01*
X80634005Y-24407619D02*
X80418505Y-24192120D01*
X80741754Y-25054117D02*
X80849504Y-25161867D01*
X80849504Y-25161867D02*
X80930316Y-25188804D01*
X80930316Y-25188804D02*
X80984191Y-25188804D01*
X80984191Y-25188804D02*
X81118878Y-25161867D01*
X81118878Y-25161867D02*
X81253565Y-25081054D01*
X81253565Y-25081054D02*
X81469064Y-24865555D01*
X81469064Y-24865555D02*
X81496001Y-24784743D01*
X81496001Y-24784743D02*
X81496001Y-24730868D01*
X81496001Y-24730868D02*
X81469064Y-24650056D01*
X81469064Y-24650056D02*
X81361314Y-24542306D01*
X81361314Y-24542306D02*
X81280502Y-24515369D01*
X81280502Y-24515369D02*
X81226627Y-24515369D01*
X81226627Y-24515369D02*
X81145815Y-24542306D01*
X81145815Y-24542306D02*
X81011128Y-24676993D01*
X81011128Y-24676993D02*
X80984191Y-24757806D01*
X80984191Y-24757806D02*
X80984191Y-24811680D01*
X80984191Y-24811680D02*
X81011128Y-24892493D01*
X81011128Y-24892493D02*
X81118878Y-25000242D01*
X81118878Y-25000242D02*
X81199690Y-25027180D01*
X81199690Y-25027180D02*
X81253565Y-25027180D01*
X81253565Y-25027180D02*
X81334377Y-25000242D01*
X67449131Y-49237998D02*
X67422194Y-49157185D01*
X67422194Y-49157185D02*
X67341381Y-49076373D01*
X67341381Y-49076373D02*
X67233632Y-49022498D01*
X67233632Y-49022498D02*
X67125882Y-49022498D01*
X67125882Y-49022498D02*
X67045070Y-49049436D01*
X67045070Y-49049436D02*
X66910383Y-49130248D01*
X66910383Y-49130248D02*
X66829571Y-49211060D01*
X66829571Y-49211060D02*
X66748758Y-49345747D01*
X66748758Y-49345747D02*
X66721821Y-49426560D01*
X66721821Y-49426560D02*
X66721821Y-49534309D01*
X66721821Y-49534309D02*
X66775696Y-49642059D01*
X66775696Y-49642059D02*
X66829571Y-49695934D01*
X66829571Y-49695934D02*
X66937320Y-49749808D01*
X66937320Y-49749808D02*
X66991195Y-49749808D01*
X66991195Y-49749808D02*
X67179757Y-49561247D01*
X67179757Y-49561247D02*
X67072007Y-49453497D01*
X67179757Y-50046120D02*
X67745442Y-49480434D01*
X67745442Y-49480434D02*
X67960942Y-49695934D01*
X67960942Y-49695934D02*
X67987879Y-49776746D01*
X67987879Y-49776746D02*
X67987879Y-49830621D01*
X67987879Y-49830621D02*
X67960942Y-49911433D01*
X67960942Y-49911433D02*
X67880129Y-49992245D01*
X67880129Y-49992245D02*
X67799317Y-50019182D01*
X67799317Y-50019182D02*
X67745442Y-50019182D01*
X67745442Y-50019182D02*
X67664630Y-49992245D01*
X67664630Y-49992245D02*
X67449131Y-49776746D01*
X68041754Y-50908117D02*
X67718505Y-50584868D01*
X67880129Y-50746492D02*
X68445815Y-50180807D01*
X68445815Y-50180807D02*
X68311128Y-50207744D01*
X68311128Y-50207744D02*
X68203378Y-50207744D01*
X68203378Y-50207744D02*
X68122566Y-50180807D01*
X68688252Y-50908117D02*
X68661314Y-50827305D01*
X68661314Y-50827305D02*
X68661314Y-50773430D01*
X68661314Y-50773430D02*
X68688252Y-50692618D01*
X68688252Y-50692618D02*
X68715189Y-50665680D01*
X68715189Y-50665680D02*
X68796001Y-50638743D01*
X68796001Y-50638743D02*
X68849876Y-50638743D01*
X68849876Y-50638743D02*
X68930688Y-50665680D01*
X68930688Y-50665680D02*
X69038438Y-50773430D01*
X69038438Y-50773430D02*
X69065375Y-50854242D01*
X69065375Y-50854242D02*
X69065375Y-50908117D01*
X69065375Y-50908117D02*
X69038438Y-50988929D01*
X69038438Y-50988929D02*
X69011500Y-51015866D01*
X69011500Y-51015866D02*
X68930688Y-51042804D01*
X68930688Y-51042804D02*
X68876813Y-51042804D01*
X68876813Y-51042804D02*
X68796001Y-51015866D01*
X68796001Y-51015866D02*
X68688252Y-50908117D01*
X68688252Y-50908117D02*
X68607439Y-50881179D01*
X68607439Y-50881179D02*
X68553565Y-50881179D01*
X68553565Y-50881179D02*
X68472752Y-50908117D01*
X68472752Y-50908117D02*
X68365003Y-51015866D01*
X68365003Y-51015866D02*
X68338065Y-51096679D01*
X68338065Y-51096679D02*
X68338065Y-51150553D01*
X68338065Y-51150553D02*
X68365003Y-51231366D01*
X68365003Y-51231366D02*
X68472752Y-51339115D01*
X68472752Y-51339115D02*
X68553565Y-51366053D01*
X68553565Y-51366053D02*
X68607439Y-51366053D01*
X68607439Y-51366053D02*
X68688252Y-51339115D01*
X68688252Y-51339115D02*
X68796001Y-51231366D01*
X68796001Y-51231366D02*
X68822939Y-51150553D01*
X68822939Y-51150553D02*
X68822939Y-51096679D01*
X68822939Y-51096679D02*
X68796001Y-51015866D01*
X65321568Y-49626435D02*
X65294631Y-49545623D01*
X65294631Y-49545623D02*
X65213819Y-49464811D01*
X65213819Y-49464811D02*
X65106069Y-49410936D01*
X65106069Y-49410936D02*
X64998319Y-49410936D01*
X64998319Y-49410936D02*
X64917507Y-49437873D01*
X64917507Y-49437873D02*
X64782820Y-49518685D01*
X64782820Y-49518685D02*
X64702008Y-49599498D01*
X64702008Y-49599498D02*
X64621196Y-49734185D01*
X64621196Y-49734185D02*
X64594258Y-49814997D01*
X64594258Y-49814997D02*
X64594258Y-49922746D01*
X64594258Y-49922746D02*
X64648133Y-50030496D01*
X64648133Y-50030496D02*
X64702008Y-50084371D01*
X64702008Y-50084371D02*
X64809758Y-50138246D01*
X64809758Y-50138246D02*
X64863632Y-50138246D01*
X64863632Y-50138246D02*
X65052194Y-49949684D01*
X65052194Y-49949684D02*
X64944445Y-49841934D01*
X65052194Y-50434557D02*
X65617880Y-49868872D01*
X65617880Y-49868872D02*
X65375443Y-50757806D01*
X65375443Y-50757806D02*
X65941128Y-50192120D01*
X65644817Y-51027180D02*
X66210502Y-50461494D01*
X66210502Y-50461494D02*
X66345189Y-50596181D01*
X66345189Y-50596181D02*
X66399064Y-50703931D01*
X66399064Y-50703931D02*
X66399064Y-50811680D01*
X66399064Y-50811680D02*
X66372127Y-50892493D01*
X66372127Y-50892493D02*
X66291314Y-51027180D01*
X66291314Y-51027180D02*
X66210502Y-51107992D01*
X66210502Y-51107992D02*
X66075815Y-51188804D01*
X66075815Y-51188804D02*
X65995003Y-51215741D01*
X65995003Y-51215741D02*
X65887253Y-51215741D01*
X65887253Y-51215741D02*
X65779504Y-51161867D01*
X65779504Y-51161867D02*
X65644817Y-51027180D01*
X75059131Y-49237998D02*
X75032194Y-49157185D01*
X75032194Y-49157185D02*
X74951381Y-49076373D01*
X74951381Y-49076373D02*
X74843632Y-49022498D01*
X74843632Y-49022498D02*
X74735882Y-49022498D01*
X74735882Y-49022498D02*
X74655070Y-49049436D01*
X74655070Y-49049436D02*
X74520383Y-49130248D01*
X74520383Y-49130248D02*
X74439571Y-49211060D01*
X74439571Y-49211060D02*
X74358758Y-49345747D01*
X74358758Y-49345747D02*
X74331821Y-49426560D01*
X74331821Y-49426560D02*
X74331821Y-49534309D01*
X74331821Y-49534309D02*
X74385696Y-49642059D01*
X74385696Y-49642059D02*
X74439571Y-49695934D01*
X74439571Y-49695934D02*
X74547320Y-49749808D01*
X74547320Y-49749808D02*
X74601195Y-49749808D01*
X74601195Y-49749808D02*
X74789757Y-49561247D01*
X74789757Y-49561247D02*
X74682007Y-49453497D01*
X74789757Y-50046120D02*
X75355442Y-49480434D01*
X75355442Y-49480434D02*
X75570942Y-49695934D01*
X75570942Y-49695934D02*
X75597879Y-49776746D01*
X75597879Y-49776746D02*
X75597879Y-49830621D01*
X75597879Y-49830621D02*
X75570942Y-49911433D01*
X75570942Y-49911433D02*
X75490129Y-49992245D01*
X75490129Y-49992245D02*
X75409317Y-50019182D01*
X75409317Y-50019182D02*
X75355442Y-50019182D01*
X75355442Y-50019182D02*
X75274630Y-49992245D01*
X75274630Y-49992245D02*
X75059131Y-49776746D01*
X75840316Y-50073057D02*
X75894190Y-50073057D01*
X75894190Y-50073057D02*
X75975003Y-50099995D01*
X75975003Y-50099995D02*
X76109690Y-50234682D01*
X76109690Y-50234682D02*
X76136627Y-50315494D01*
X76136627Y-50315494D02*
X76136627Y-50369369D01*
X76136627Y-50369369D02*
X76109690Y-50450181D01*
X76109690Y-50450181D02*
X76055815Y-50504056D01*
X76055815Y-50504056D02*
X75948065Y-50557930D01*
X75948065Y-50557930D02*
X75301568Y-50557930D01*
X75301568Y-50557930D02*
X75651754Y-50908117D01*
X76190502Y-51446865D02*
X75867253Y-51123616D01*
X76028878Y-51285240D02*
X76594563Y-50719555D01*
X76594563Y-50719555D02*
X76459876Y-50746492D01*
X76459876Y-50746492D02*
X76352126Y-50746492D01*
X76352126Y-50746492D02*
X76271314Y-50719555D01*
X88038505Y-23653372D02*
X88011568Y-23572560D01*
X88011568Y-23572560D02*
X87930756Y-23491748D01*
X87930756Y-23491748D02*
X87823006Y-23437873D01*
X87823006Y-23437873D02*
X87715257Y-23437873D01*
X87715257Y-23437873D02*
X87634444Y-23464810D01*
X87634444Y-23464810D02*
X87499757Y-23545623D01*
X87499757Y-23545623D02*
X87418945Y-23626435D01*
X87418945Y-23626435D02*
X87338133Y-23761122D01*
X87338133Y-23761122D02*
X87311196Y-23841934D01*
X87311196Y-23841934D02*
X87311196Y-23949684D01*
X87311196Y-23949684D02*
X87365070Y-24057433D01*
X87365070Y-24057433D02*
X87418945Y-24111308D01*
X87418945Y-24111308D02*
X87526695Y-24165183D01*
X87526695Y-24165183D02*
X87580570Y-24165183D01*
X87580570Y-24165183D02*
X87769131Y-23976621D01*
X87769131Y-23976621D02*
X87661382Y-23868871D01*
X87769131Y-24461494D02*
X88334817Y-23895809D01*
X88334817Y-23895809D02*
X88550316Y-24111308D01*
X88550316Y-24111308D02*
X88577253Y-24192120D01*
X88577253Y-24192120D02*
X88577253Y-24245995D01*
X88577253Y-24245995D02*
X88550316Y-24326807D01*
X88550316Y-24326807D02*
X88469504Y-24407619D01*
X88469504Y-24407619D02*
X88388692Y-24434557D01*
X88388692Y-24434557D02*
X88334817Y-24434557D01*
X88334817Y-24434557D02*
X88254005Y-24407619D01*
X88254005Y-24407619D02*
X88038505Y-24192120D01*
X89142939Y-24703931D02*
X89035189Y-24596181D01*
X89035189Y-24596181D02*
X88954377Y-24569244D01*
X88954377Y-24569244D02*
X88900502Y-24569244D01*
X88900502Y-24569244D02*
X88765815Y-24596181D01*
X88765815Y-24596181D02*
X88631128Y-24676993D01*
X88631128Y-24676993D02*
X88415629Y-24892493D01*
X88415629Y-24892493D02*
X88388692Y-24973305D01*
X88388692Y-24973305D02*
X88388692Y-25027180D01*
X88388692Y-25027180D02*
X88415629Y-25107992D01*
X88415629Y-25107992D02*
X88523379Y-25215741D01*
X88523379Y-25215741D02*
X88604191Y-25242679D01*
X88604191Y-25242679D02*
X88658066Y-25242679D01*
X88658066Y-25242679D02*
X88738878Y-25215741D01*
X88738878Y-25215741D02*
X88873565Y-25081054D01*
X88873565Y-25081054D02*
X88900502Y-25000242D01*
X88900502Y-25000242D02*
X88900502Y-24946367D01*
X88900502Y-24946367D02*
X88873565Y-24865555D01*
X88873565Y-24865555D02*
X88765815Y-24757806D01*
X88765815Y-24757806D02*
X88685003Y-24730868D01*
X88685003Y-24730868D02*
X88631128Y-24730868D01*
X88631128Y-24730868D02*
X88550316Y-24757806D01*
X103421568Y-49626435D02*
X103394631Y-49545623D01*
X103394631Y-49545623D02*
X103313819Y-49464811D01*
X103313819Y-49464811D02*
X103206069Y-49410936D01*
X103206069Y-49410936D02*
X103098319Y-49410936D01*
X103098319Y-49410936D02*
X103017507Y-49437873D01*
X103017507Y-49437873D02*
X102882820Y-49518685D01*
X102882820Y-49518685D02*
X102802008Y-49599498D01*
X102802008Y-49599498D02*
X102721196Y-49734185D01*
X102721196Y-49734185D02*
X102694258Y-49814997D01*
X102694258Y-49814997D02*
X102694258Y-49922746D01*
X102694258Y-49922746D02*
X102748133Y-50030496D01*
X102748133Y-50030496D02*
X102802008Y-50084371D01*
X102802008Y-50084371D02*
X102909758Y-50138246D01*
X102909758Y-50138246D02*
X102963632Y-50138246D01*
X102963632Y-50138246D02*
X103152194Y-49949684D01*
X103152194Y-49949684D02*
X103044445Y-49841934D01*
X103152194Y-50434557D02*
X103717880Y-49868872D01*
X103717880Y-49868872D02*
X103475443Y-50757806D01*
X103475443Y-50757806D02*
X104041128Y-50192120D01*
X103744817Y-51027180D02*
X104310502Y-50461494D01*
X104310502Y-50461494D02*
X104445189Y-50596181D01*
X104445189Y-50596181D02*
X104499064Y-50703931D01*
X104499064Y-50703931D02*
X104499064Y-50811680D01*
X104499064Y-50811680D02*
X104472127Y-50892493D01*
X104472127Y-50892493D02*
X104391314Y-51027180D01*
X104391314Y-51027180D02*
X104310502Y-51107992D01*
X104310502Y-51107992D02*
X104175815Y-51188804D01*
X104175815Y-51188804D02*
X104095003Y-51215741D01*
X104095003Y-51215741D02*
X103987253Y-51215741D01*
X103987253Y-51215741D02*
X103879504Y-51161867D01*
X103879504Y-51161867D02*
X103744817Y-51027180D01*
X94815950Y-49295064D02*
X95085324Y-49564438D01*
X94600450Y-49402813D02*
X95354698Y-49025690D01*
X95354698Y-49025690D02*
X94977574Y-49779937D01*
X95166136Y-49968499D02*
X95731821Y-49402813D01*
X95731821Y-49402813D02*
X95866508Y-49537500D01*
X95866508Y-49537500D02*
X95920383Y-49645250D01*
X95920383Y-49645250D02*
X95920383Y-49752999D01*
X95920383Y-49752999D02*
X95893446Y-49833812D01*
X95893446Y-49833812D02*
X95812633Y-49968499D01*
X95812633Y-49968499D02*
X95731821Y-50049311D01*
X95731821Y-50049311D02*
X95597134Y-50130123D01*
X95597134Y-50130123D02*
X95516322Y-50157060D01*
X95516322Y-50157060D02*
X95408572Y-50157060D01*
X95408572Y-50157060D02*
X95300823Y-50103186D01*
X95300823Y-50103186D02*
X95166136Y-49968499D01*
X96108945Y-50803558D02*
X96055070Y-50803558D01*
X96055070Y-50803558D02*
X95947320Y-50749683D01*
X95947320Y-50749683D02*
X95893446Y-50695808D01*
X95893446Y-50695808D02*
X95839571Y-50588059D01*
X95839571Y-50588059D02*
X95839571Y-50480309D01*
X95839571Y-50480309D02*
X95866508Y-50399497D01*
X95866508Y-50399497D02*
X95947320Y-50264810D01*
X95947320Y-50264810D02*
X96028133Y-50183998D01*
X96028133Y-50183998D02*
X96162820Y-50103186D01*
X96162820Y-50103186D02*
X96243632Y-50076248D01*
X96243632Y-50076248D02*
X96351381Y-50076248D01*
X96351381Y-50076248D02*
X96459131Y-50130123D01*
X96459131Y-50130123D02*
X96513006Y-50183998D01*
X96513006Y-50183998D02*
X96566881Y-50291747D01*
X96566881Y-50291747D02*
X96566881Y-50345622D01*
X96108945Y-51019057D02*
X96539943Y-51450056D01*
X97213378Y-50884370D02*
X96836255Y-51638618D01*
X96836255Y-51638618D02*
X97590502Y-51261494D01*
X97536627Y-52338990D02*
X97617439Y-51881054D01*
X97213378Y-52015741D02*
X97779064Y-51450056D01*
X97779064Y-51450056D02*
X97994563Y-51665555D01*
X97994563Y-51665555D02*
X98021500Y-51746367D01*
X98021500Y-51746367D02*
X98021500Y-51800242D01*
X98021500Y-51800242D02*
X97994563Y-51881054D01*
X97994563Y-51881054D02*
X97913751Y-51961866D01*
X97913751Y-51961866D02*
X97832938Y-51988804D01*
X97832938Y-51988804D02*
X97779064Y-51988804D01*
X97779064Y-51988804D02*
X97698251Y-51961866D01*
X97698251Y-51961866D02*
X97482752Y-51746367D01*
X98075375Y-52285115D02*
X98263937Y-52473677D01*
X98048438Y-52850800D02*
X97779064Y-52581426D01*
X97779064Y-52581426D02*
X98344749Y-52015741D01*
X98344749Y-52015741D02*
X98614123Y-52285115D01*
X98775748Y-52985488D02*
X98587186Y-52796926D01*
X98290874Y-53093237D02*
X98856560Y-52527552D01*
X98856560Y-52527552D02*
X99125934Y-52796926D01*
X82406289Y-49978651D02*
X82487101Y-49520716D01*
X82083040Y-49655403D02*
X82648725Y-49089717D01*
X82648725Y-49089717D02*
X82864224Y-49305216D01*
X82864224Y-49305216D02*
X82891162Y-49386029D01*
X82891162Y-49386029D02*
X82891162Y-49439903D01*
X82891162Y-49439903D02*
X82864224Y-49520716D01*
X82864224Y-49520716D02*
X82783412Y-49601528D01*
X82783412Y-49601528D02*
X82702600Y-49628465D01*
X82702600Y-49628465D02*
X82648725Y-49628465D01*
X82648725Y-49628465D02*
X82567913Y-49601528D01*
X82567913Y-49601528D02*
X82352414Y-49386029D01*
X83214411Y-49655403D02*
X82756475Y-50113338D01*
X82756475Y-50113338D02*
X82729537Y-50194151D01*
X82729537Y-50194151D02*
X82729537Y-50248025D01*
X82729537Y-50248025D02*
X82756475Y-50328838D01*
X82756475Y-50328838D02*
X82864224Y-50436587D01*
X82864224Y-50436587D02*
X82945037Y-50463525D01*
X82945037Y-50463525D02*
X82998911Y-50463525D01*
X82998911Y-50463525D02*
X83079724Y-50436587D01*
X83079724Y-50436587D02*
X83537659Y-49978651D01*
X83241348Y-50813711D02*
X83807033Y-50248025D01*
X83807033Y-50248025D02*
X83564597Y-51136959D01*
X83564597Y-51136959D02*
X84130282Y-50571274D01*
X89608759Y-49291873D02*
X89878133Y-49561247D01*
X89393260Y-49399623D02*
X90147507Y-49022499D01*
X90147507Y-49022499D02*
X89770384Y-49776746D01*
X90794005Y-49722871D02*
X90767067Y-49642059D01*
X90767067Y-49642059D02*
X90686255Y-49561247D01*
X90686255Y-49561247D02*
X90578505Y-49507372D01*
X90578505Y-49507372D02*
X90470756Y-49507372D01*
X90470756Y-49507372D02*
X90389944Y-49534310D01*
X90389944Y-49534310D02*
X90255257Y-49615122D01*
X90255257Y-49615122D02*
X90174444Y-49695934D01*
X90174444Y-49695934D02*
X90093632Y-49830621D01*
X90093632Y-49830621D02*
X90066695Y-49911433D01*
X90066695Y-49911433D02*
X90066695Y-50019183D01*
X90066695Y-50019183D02*
X90120570Y-50126932D01*
X90120570Y-50126932D02*
X90174444Y-50180807D01*
X90174444Y-50180807D02*
X90282194Y-50234682D01*
X90282194Y-50234682D02*
X90336069Y-50234682D01*
X90336069Y-50234682D02*
X90524631Y-50046120D01*
X90524631Y-50046120D02*
X90416881Y-49938371D01*
X90524631Y-50530993D02*
X91090316Y-49965308D01*
X91090316Y-49965308D02*
X90847879Y-50854242D01*
X90847879Y-50854242D02*
X91413565Y-50288557D01*
X91117253Y-51123616D02*
X91682939Y-50557931D01*
X91682939Y-50557931D02*
X91817626Y-50692618D01*
X91817626Y-50692618D02*
X91871501Y-50800367D01*
X91871501Y-50800367D02*
X91871501Y-50908117D01*
X91871501Y-50908117D02*
X91844563Y-50988929D01*
X91844563Y-50988929D02*
X91763751Y-51123616D01*
X91763751Y-51123616D02*
X91682939Y-51204428D01*
X91682939Y-51204428D02*
X91548252Y-51285241D01*
X91548252Y-51285241D02*
X91467439Y-51312178D01*
X91467439Y-51312178D02*
X91359690Y-51312178D01*
X91359690Y-51312178D02*
X91251940Y-51258303D01*
X91251940Y-51258303D02*
X91117253Y-51123616D01*
X95658505Y-23653372D02*
X95631568Y-23572560D01*
X95631568Y-23572560D02*
X95550756Y-23491748D01*
X95550756Y-23491748D02*
X95443006Y-23437873D01*
X95443006Y-23437873D02*
X95335257Y-23437873D01*
X95335257Y-23437873D02*
X95254444Y-23464810D01*
X95254444Y-23464810D02*
X95119757Y-23545623D01*
X95119757Y-23545623D02*
X95038945Y-23626435D01*
X95038945Y-23626435D02*
X94958133Y-23761122D01*
X94958133Y-23761122D02*
X94931196Y-23841934D01*
X94931196Y-23841934D02*
X94931196Y-23949684D01*
X94931196Y-23949684D02*
X94985070Y-24057433D01*
X94985070Y-24057433D02*
X95038945Y-24111308D01*
X95038945Y-24111308D02*
X95146695Y-24165183D01*
X95146695Y-24165183D02*
X95200570Y-24165183D01*
X95200570Y-24165183D02*
X95389131Y-23976621D01*
X95389131Y-23976621D02*
X95281382Y-23868871D01*
X95389131Y-24461494D02*
X95954817Y-23895809D01*
X95954817Y-23895809D02*
X96170316Y-24111308D01*
X96170316Y-24111308D02*
X96197253Y-24192120D01*
X96197253Y-24192120D02*
X96197253Y-24245995D01*
X96197253Y-24245995D02*
X96170316Y-24326807D01*
X96170316Y-24326807D02*
X96089504Y-24407619D01*
X96089504Y-24407619D02*
X96008692Y-24434557D01*
X96008692Y-24434557D02*
X95954817Y-24434557D01*
X95954817Y-24434557D02*
X95874005Y-24407619D01*
X95874005Y-24407619D02*
X95658505Y-24192120D01*
X96574377Y-24892493D02*
X96197253Y-25269616D01*
X96655189Y-24542306D02*
X96116441Y-24811680D01*
X96116441Y-24811680D02*
X96466627Y-25161867D01*
X78021568Y-49626435D02*
X77994631Y-49545623D01*
X77994631Y-49545623D02*
X77913819Y-49464811D01*
X77913819Y-49464811D02*
X77806069Y-49410936D01*
X77806069Y-49410936D02*
X77698319Y-49410936D01*
X77698319Y-49410936D02*
X77617507Y-49437873D01*
X77617507Y-49437873D02*
X77482820Y-49518685D01*
X77482820Y-49518685D02*
X77402008Y-49599498D01*
X77402008Y-49599498D02*
X77321196Y-49734185D01*
X77321196Y-49734185D02*
X77294258Y-49814997D01*
X77294258Y-49814997D02*
X77294258Y-49922746D01*
X77294258Y-49922746D02*
X77348133Y-50030496D01*
X77348133Y-50030496D02*
X77402008Y-50084371D01*
X77402008Y-50084371D02*
X77509758Y-50138246D01*
X77509758Y-50138246D02*
X77563632Y-50138246D01*
X77563632Y-50138246D02*
X77752194Y-49949684D01*
X77752194Y-49949684D02*
X77644445Y-49841934D01*
X77752194Y-50434557D02*
X78317880Y-49868872D01*
X78317880Y-49868872D02*
X78075443Y-50757806D01*
X78075443Y-50757806D02*
X78641128Y-50192120D01*
X78344817Y-51027180D02*
X78910502Y-50461494D01*
X78910502Y-50461494D02*
X79045189Y-50596181D01*
X79045189Y-50596181D02*
X79099064Y-50703931D01*
X79099064Y-50703931D02*
X79099064Y-50811680D01*
X79099064Y-50811680D02*
X79072127Y-50892493D01*
X79072127Y-50892493D02*
X78991314Y-51027180D01*
X78991314Y-51027180D02*
X78910502Y-51107992D01*
X78910502Y-51107992D02*
X78775815Y-51188804D01*
X78775815Y-51188804D02*
X78695003Y-51215741D01*
X78695003Y-51215741D02*
X78587253Y-51215741D01*
X78587253Y-51215741D02*
X78479504Y-51161867D01*
X78479504Y-51161867D02*
X78344817Y-51027180D01*
X59829131Y-49237998D02*
X59802194Y-49157185D01*
X59802194Y-49157185D02*
X59721381Y-49076373D01*
X59721381Y-49076373D02*
X59613632Y-49022498D01*
X59613632Y-49022498D02*
X59505882Y-49022498D01*
X59505882Y-49022498D02*
X59425070Y-49049436D01*
X59425070Y-49049436D02*
X59290383Y-49130248D01*
X59290383Y-49130248D02*
X59209571Y-49211060D01*
X59209571Y-49211060D02*
X59128758Y-49345747D01*
X59128758Y-49345747D02*
X59101821Y-49426560D01*
X59101821Y-49426560D02*
X59101821Y-49534309D01*
X59101821Y-49534309D02*
X59155696Y-49642059D01*
X59155696Y-49642059D02*
X59209571Y-49695934D01*
X59209571Y-49695934D02*
X59317320Y-49749808D01*
X59317320Y-49749808D02*
X59371195Y-49749808D01*
X59371195Y-49749808D02*
X59559757Y-49561247D01*
X59559757Y-49561247D02*
X59452007Y-49453497D01*
X59559757Y-50046120D02*
X60125442Y-49480434D01*
X60125442Y-49480434D02*
X60340942Y-49695934D01*
X60340942Y-49695934D02*
X60367879Y-49776746D01*
X60367879Y-49776746D02*
X60367879Y-49830621D01*
X60367879Y-49830621D02*
X60340942Y-49911433D01*
X60340942Y-49911433D02*
X60260129Y-49992245D01*
X60260129Y-49992245D02*
X60179317Y-50019182D01*
X60179317Y-50019182D02*
X60125442Y-50019182D01*
X60125442Y-50019182D02*
X60044630Y-49992245D01*
X60044630Y-49992245D02*
X59829131Y-49776746D01*
X60421754Y-50908117D02*
X60098505Y-50584868D01*
X60260129Y-50746492D02*
X60825815Y-50180807D01*
X60825815Y-50180807D02*
X60691128Y-50207744D01*
X60691128Y-50207744D02*
X60583378Y-50207744D01*
X60583378Y-50207744D02*
X60502566Y-50180807D01*
X61472313Y-50827305D02*
X61364563Y-50719555D01*
X61364563Y-50719555D02*
X61283751Y-50692618D01*
X61283751Y-50692618D02*
X61229876Y-50692618D01*
X61229876Y-50692618D02*
X61095189Y-50719555D01*
X61095189Y-50719555D02*
X60960502Y-50800367D01*
X60960502Y-50800367D02*
X60745003Y-51015866D01*
X60745003Y-51015866D02*
X60718065Y-51096679D01*
X60718065Y-51096679D02*
X60718065Y-51150553D01*
X60718065Y-51150553D02*
X60745003Y-51231366D01*
X60745003Y-51231366D02*
X60852752Y-51339115D01*
X60852752Y-51339115D02*
X60933565Y-51366053D01*
X60933565Y-51366053D02*
X60987439Y-51366053D01*
X60987439Y-51366053D02*
X61068252Y-51339115D01*
X61068252Y-51339115D02*
X61202939Y-51204428D01*
X61202939Y-51204428D02*
X61229876Y-51123616D01*
X61229876Y-51123616D02*
X61229876Y-51069741D01*
X61229876Y-51069741D02*
X61202939Y-50988929D01*
X61202939Y-50988929D02*
X61095189Y-50881179D01*
X61095189Y-50881179D02*
X61014377Y-50854242D01*
X61014377Y-50854242D02*
X60960502Y-50854242D01*
X60960502Y-50854242D02*
X60879690Y-50881179D01*
X69989131Y-22983998D02*
X69962194Y-22903185D01*
X69962194Y-22903185D02*
X69881381Y-22822373D01*
X69881381Y-22822373D02*
X69773632Y-22768498D01*
X69773632Y-22768498D02*
X69665882Y-22768498D01*
X69665882Y-22768498D02*
X69585070Y-22795436D01*
X69585070Y-22795436D02*
X69450383Y-22876248D01*
X69450383Y-22876248D02*
X69369571Y-22957060D01*
X69369571Y-22957060D02*
X69288758Y-23091747D01*
X69288758Y-23091747D02*
X69261821Y-23172560D01*
X69261821Y-23172560D02*
X69261821Y-23280309D01*
X69261821Y-23280309D02*
X69315696Y-23388059D01*
X69315696Y-23388059D02*
X69369571Y-23441934D01*
X69369571Y-23441934D02*
X69477320Y-23495808D01*
X69477320Y-23495808D02*
X69531195Y-23495808D01*
X69531195Y-23495808D02*
X69719757Y-23307247D01*
X69719757Y-23307247D02*
X69612007Y-23199497D01*
X69719757Y-23792120D02*
X70285442Y-23226434D01*
X70285442Y-23226434D02*
X70500942Y-23441934D01*
X70500942Y-23441934D02*
X70527879Y-23522746D01*
X70527879Y-23522746D02*
X70527879Y-23576621D01*
X70527879Y-23576621D02*
X70500942Y-23657433D01*
X70500942Y-23657433D02*
X70420129Y-23738245D01*
X70420129Y-23738245D02*
X70339317Y-23765182D01*
X70339317Y-23765182D02*
X70285442Y-23765182D01*
X70285442Y-23765182D02*
X70204630Y-23738245D01*
X70204630Y-23738245D02*
X69989131Y-23522746D01*
X70581754Y-24654117D02*
X70258505Y-24330868D01*
X70420129Y-24492492D02*
X70985815Y-23926807D01*
X70985815Y-23926807D02*
X70851128Y-23953744D01*
X70851128Y-23953744D02*
X70743378Y-23953744D01*
X70743378Y-23953744D02*
X70662566Y-23926807D01*
X71309064Y-24357805D02*
X71362939Y-24357805D01*
X71362939Y-24357805D02*
X71443751Y-24384743D01*
X71443751Y-24384743D02*
X71578438Y-24519430D01*
X71578438Y-24519430D02*
X71605375Y-24600242D01*
X71605375Y-24600242D02*
X71605375Y-24654117D01*
X71605375Y-24654117D02*
X71578438Y-24734929D01*
X71578438Y-24734929D02*
X71524563Y-24788804D01*
X71524563Y-24788804D02*
X71416813Y-24842679D01*
X71416813Y-24842679D02*
X70770316Y-24842679D01*
X70770316Y-24842679D02*
X71120502Y-25192865D01*
X93118505Y-23653372D02*
X93091568Y-23572560D01*
X93091568Y-23572560D02*
X93010756Y-23491748D01*
X93010756Y-23491748D02*
X92903006Y-23437873D01*
X92903006Y-23437873D02*
X92795257Y-23437873D01*
X92795257Y-23437873D02*
X92714444Y-23464810D01*
X92714444Y-23464810D02*
X92579757Y-23545623D01*
X92579757Y-23545623D02*
X92498945Y-23626435D01*
X92498945Y-23626435D02*
X92418133Y-23761122D01*
X92418133Y-23761122D02*
X92391196Y-23841934D01*
X92391196Y-23841934D02*
X92391196Y-23949684D01*
X92391196Y-23949684D02*
X92445070Y-24057433D01*
X92445070Y-24057433D02*
X92498945Y-24111308D01*
X92498945Y-24111308D02*
X92606695Y-24165183D01*
X92606695Y-24165183D02*
X92660570Y-24165183D01*
X92660570Y-24165183D02*
X92849131Y-23976621D01*
X92849131Y-23976621D02*
X92741382Y-23868871D01*
X92849131Y-24461494D02*
X93414817Y-23895809D01*
X93414817Y-23895809D02*
X93630316Y-24111308D01*
X93630316Y-24111308D02*
X93657253Y-24192120D01*
X93657253Y-24192120D02*
X93657253Y-24245995D01*
X93657253Y-24245995D02*
X93630316Y-24326807D01*
X93630316Y-24326807D02*
X93549504Y-24407619D01*
X93549504Y-24407619D02*
X93468692Y-24434557D01*
X93468692Y-24434557D02*
X93414817Y-24434557D01*
X93414817Y-24434557D02*
X93334005Y-24407619D01*
X93334005Y-24407619D02*
X93118505Y-24192120D01*
X94249876Y-24730868D02*
X93980502Y-24461494D01*
X93980502Y-24461494D02*
X93684191Y-24703931D01*
X93684191Y-24703931D02*
X93738066Y-24703931D01*
X93738066Y-24703931D02*
X93818878Y-24730868D01*
X93818878Y-24730868D02*
X93953565Y-24865555D01*
X93953565Y-24865555D02*
X93980502Y-24946367D01*
X93980502Y-24946367D02*
X93980502Y-25000242D01*
X93980502Y-25000242D02*
X93953565Y-25081054D01*
X93953565Y-25081054D02*
X93818878Y-25215741D01*
X93818878Y-25215741D02*
X93738066Y-25242679D01*
X93738066Y-25242679D02*
X93684191Y-25242679D01*
X93684191Y-25242679D02*
X93603379Y-25215741D01*
X93603379Y-25215741D02*
X93468692Y-25081054D01*
X93468692Y-25081054D02*
X93441754Y-25000242D01*
X93441754Y-25000242D02*
X93441754Y-24946367D01*
X93103131Y-49237998D02*
X93076194Y-49157185D01*
X93076194Y-49157185D02*
X92995381Y-49076373D01*
X92995381Y-49076373D02*
X92887632Y-49022498D01*
X92887632Y-49022498D02*
X92779882Y-49022498D01*
X92779882Y-49022498D02*
X92699070Y-49049436D01*
X92699070Y-49049436D02*
X92564383Y-49130248D01*
X92564383Y-49130248D02*
X92483571Y-49211060D01*
X92483571Y-49211060D02*
X92402758Y-49345747D01*
X92402758Y-49345747D02*
X92375821Y-49426560D01*
X92375821Y-49426560D02*
X92375821Y-49534309D01*
X92375821Y-49534309D02*
X92429696Y-49642059D01*
X92429696Y-49642059D02*
X92483571Y-49695934D01*
X92483571Y-49695934D02*
X92591320Y-49749808D01*
X92591320Y-49749808D02*
X92645195Y-49749808D01*
X92645195Y-49749808D02*
X92833757Y-49561247D01*
X92833757Y-49561247D02*
X92726007Y-49453497D01*
X92833757Y-50046120D02*
X93399442Y-49480434D01*
X93399442Y-49480434D02*
X93614942Y-49695934D01*
X93614942Y-49695934D02*
X93641879Y-49776746D01*
X93641879Y-49776746D02*
X93641879Y-49830621D01*
X93641879Y-49830621D02*
X93614942Y-49911433D01*
X93614942Y-49911433D02*
X93534129Y-49992245D01*
X93534129Y-49992245D02*
X93453317Y-50019182D01*
X93453317Y-50019182D02*
X93399442Y-50019182D01*
X93399442Y-50019182D02*
X93318630Y-49992245D01*
X93318630Y-49992245D02*
X93103131Y-49776746D01*
X93884316Y-50073057D02*
X93938190Y-50073057D01*
X93938190Y-50073057D02*
X94019003Y-50099995D01*
X94019003Y-50099995D02*
X94153690Y-50234682D01*
X94153690Y-50234682D02*
X94180627Y-50315494D01*
X94180627Y-50315494D02*
X94180627Y-50369369D01*
X94180627Y-50369369D02*
X94153690Y-50450181D01*
X94153690Y-50450181D02*
X94099815Y-50504056D01*
X94099815Y-50504056D02*
X93992065Y-50557930D01*
X93992065Y-50557930D02*
X93345568Y-50557930D01*
X93345568Y-50557930D02*
X93695754Y-50908117D01*
X94342252Y-50908117D02*
X94315314Y-50827305D01*
X94315314Y-50827305D02*
X94315314Y-50773430D01*
X94315314Y-50773430D02*
X94342252Y-50692618D01*
X94342252Y-50692618D02*
X94369189Y-50665680D01*
X94369189Y-50665680D02*
X94450001Y-50638743D01*
X94450001Y-50638743D02*
X94503876Y-50638743D01*
X94503876Y-50638743D02*
X94584688Y-50665680D01*
X94584688Y-50665680D02*
X94692438Y-50773430D01*
X94692438Y-50773430D02*
X94719375Y-50854242D01*
X94719375Y-50854242D02*
X94719375Y-50908117D01*
X94719375Y-50908117D02*
X94692438Y-50988929D01*
X94692438Y-50988929D02*
X94665500Y-51015866D01*
X94665500Y-51015866D02*
X94584688Y-51042804D01*
X94584688Y-51042804D02*
X94530813Y-51042804D01*
X94530813Y-51042804D02*
X94450001Y-51015866D01*
X94450001Y-51015866D02*
X94342252Y-50908117D01*
X94342252Y-50908117D02*
X94261439Y-50881179D01*
X94261439Y-50881179D02*
X94207565Y-50881179D01*
X94207565Y-50881179D02*
X94126752Y-50908117D01*
X94126752Y-50908117D02*
X94019003Y-51015866D01*
X94019003Y-51015866D02*
X93992065Y-51096679D01*
X93992065Y-51096679D02*
X93992065Y-51150553D01*
X93992065Y-51150553D02*
X94019003Y-51231366D01*
X94019003Y-51231366D02*
X94126752Y-51339115D01*
X94126752Y-51339115D02*
X94207565Y-51366053D01*
X94207565Y-51366053D02*
X94261439Y-51366053D01*
X94261439Y-51366053D02*
X94342252Y-51339115D01*
X94342252Y-51339115D02*
X94450001Y-51231366D01*
X94450001Y-51231366D02*
X94476939Y-51150553D01*
X94476939Y-51150553D02*
X94476939Y-51096679D01*
X94476939Y-51096679D02*
X94450001Y-51015866D01*
X59829131Y-23129998D02*
X59802194Y-23049185D01*
X59802194Y-23049185D02*
X59721381Y-22968373D01*
X59721381Y-22968373D02*
X59613632Y-22914498D01*
X59613632Y-22914498D02*
X59505882Y-22914498D01*
X59505882Y-22914498D02*
X59425070Y-22941436D01*
X59425070Y-22941436D02*
X59290383Y-23022248D01*
X59290383Y-23022248D02*
X59209571Y-23103060D01*
X59209571Y-23103060D02*
X59128758Y-23237747D01*
X59128758Y-23237747D02*
X59101821Y-23318560D01*
X59101821Y-23318560D02*
X59101821Y-23426309D01*
X59101821Y-23426309D02*
X59155696Y-23534059D01*
X59155696Y-23534059D02*
X59209571Y-23587934D01*
X59209571Y-23587934D02*
X59317320Y-23641808D01*
X59317320Y-23641808D02*
X59371195Y-23641808D01*
X59371195Y-23641808D02*
X59559757Y-23453247D01*
X59559757Y-23453247D02*
X59452007Y-23345497D01*
X59559757Y-23938120D02*
X60125442Y-23372434D01*
X60125442Y-23372434D02*
X60340942Y-23587934D01*
X60340942Y-23587934D02*
X60367879Y-23668746D01*
X60367879Y-23668746D02*
X60367879Y-23722621D01*
X60367879Y-23722621D02*
X60340942Y-23803433D01*
X60340942Y-23803433D02*
X60260129Y-23884245D01*
X60260129Y-23884245D02*
X60179317Y-23911182D01*
X60179317Y-23911182D02*
X60125442Y-23911182D01*
X60125442Y-23911182D02*
X60044630Y-23884245D01*
X60044630Y-23884245D02*
X59829131Y-23668746D01*
X60421754Y-24800117D02*
X60098505Y-24476868D01*
X60260129Y-24638492D02*
X60825815Y-24072807D01*
X60825815Y-24072807D02*
X60691128Y-24099744D01*
X60691128Y-24099744D02*
X60583378Y-24099744D01*
X60583378Y-24099744D02*
X60502566Y-24072807D01*
X61499250Y-24746242D02*
X61229876Y-24476868D01*
X61229876Y-24476868D02*
X60933565Y-24719305D01*
X60933565Y-24719305D02*
X60987439Y-24719305D01*
X60987439Y-24719305D02*
X61068252Y-24746242D01*
X61068252Y-24746242D02*
X61202939Y-24880929D01*
X61202939Y-24880929D02*
X61229876Y-24961741D01*
X61229876Y-24961741D02*
X61229876Y-25015616D01*
X61229876Y-25015616D02*
X61202939Y-25096428D01*
X61202939Y-25096428D02*
X61068252Y-25231115D01*
X61068252Y-25231115D02*
X60987439Y-25258053D01*
X60987439Y-25258053D02*
X60933565Y-25258053D01*
X60933565Y-25258053D02*
X60852752Y-25231115D01*
X60852752Y-25231115D02*
X60718065Y-25096428D01*
X60718065Y-25096428D02*
X60691128Y-25015616D01*
X60691128Y-25015616D02*
X60691128Y-24961741D01*
X87759131Y-49237998D02*
X87732194Y-49157185D01*
X87732194Y-49157185D02*
X87651381Y-49076373D01*
X87651381Y-49076373D02*
X87543632Y-49022498D01*
X87543632Y-49022498D02*
X87435882Y-49022498D01*
X87435882Y-49022498D02*
X87355070Y-49049436D01*
X87355070Y-49049436D02*
X87220383Y-49130248D01*
X87220383Y-49130248D02*
X87139571Y-49211060D01*
X87139571Y-49211060D02*
X87058758Y-49345747D01*
X87058758Y-49345747D02*
X87031821Y-49426560D01*
X87031821Y-49426560D02*
X87031821Y-49534309D01*
X87031821Y-49534309D02*
X87085696Y-49642059D01*
X87085696Y-49642059D02*
X87139571Y-49695934D01*
X87139571Y-49695934D02*
X87247320Y-49749808D01*
X87247320Y-49749808D02*
X87301195Y-49749808D01*
X87301195Y-49749808D02*
X87489757Y-49561247D01*
X87489757Y-49561247D02*
X87382007Y-49453497D01*
X87489757Y-50046120D02*
X88055442Y-49480434D01*
X88055442Y-49480434D02*
X88270942Y-49695934D01*
X88270942Y-49695934D02*
X88297879Y-49776746D01*
X88297879Y-49776746D02*
X88297879Y-49830621D01*
X88297879Y-49830621D02*
X88270942Y-49911433D01*
X88270942Y-49911433D02*
X88190129Y-49992245D01*
X88190129Y-49992245D02*
X88109317Y-50019182D01*
X88109317Y-50019182D02*
X88055442Y-50019182D01*
X88055442Y-50019182D02*
X87974630Y-49992245D01*
X87974630Y-49992245D02*
X87759131Y-49776746D01*
X88540316Y-50073057D02*
X88594190Y-50073057D01*
X88594190Y-50073057D02*
X88675003Y-50099995D01*
X88675003Y-50099995D02*
X88809690Y-50234682D01*
X88809690Y-50234682D02*
X88836627Y-50315494D01*
X88836627Y-50315494D02*
X88836627Y-50369369D01*
X88836627Y-50369369D02*
X88809690Y-50450181D01*
X88809690Y-50450181D02*
X88755815Y-50504056D01*
X88755815Y-50504056D02*
X88648065Y-50557930D01*
X88648065Y-50557930D02*
X88001568Y-50557930D01*
X88001568Y-50557930D02*
X88351754Y-50908117D01*
X89106001Y-50530993D02*
X89483125Y-50908117D01*
X89483125Y-50908117D02*
X88675003Y-51231366D01*
X90721568Y-49626435D02*
X90694631Y-49545623D01*
X90694631Y-49545623D02*
X90613819Y-49464811D01*
X90613819Y-49464811D02*
X90506069Y-49410936D01*
X90506069Y-49410936D02*
X90398319Y-49410936D01*
X90398319Y-49410936D02*
X90317507Y-49437873D01*
X90317507Y-49437873D02*
X90182820Y-49518685D01*
X90182820Y-49518685D02*
X90102008Y-49599498D01*
X90102008Y-49599498D02*
X90021196Y-49734185D01*
X90021196Y-49734185D02*
X89994258Y-49814997D01*
X89994258Y-49814997D02*
X89994258Y-49922746D01*
X89994258Y-49922746D02*
X90048133Y-50030496D01*
X90048133Y-50030496D02*
X90102008Y-50084371D01*
X90102008Y-50084371D02*
X90209758Y-50138246D01*
X90209758Y-50138246D02*
X90263632Y-50138246D01*
X90263632Y-50138246D02*
X90452194Y-49949684D01*
X90452194Y-49949684D02*
X90344445Y-49841934D01*
X90452194Y-50434557D02*
X91017880Y-49868872D01*
X91017880Y-49868872D02*
X90775443Y-50757806D01*
X90775443Y-50757806D02*
X91341128Y-50192120D01*
X91044817Y-51027180D02*
X91610502Y-50461494D01*
X91610502Y-50461494D02*
X91745189Y-50596181D01*
X91745189Y-50596181D02*
X91799064Y-50703931D01*
X91799064Y-50703931D02*
X91799064Y-50811680D01*
X91799064Y-50811680D02*
X91772127Y-50892493D01*
X91772127Y-50892493D02*
X91691314Y-51027180D01*
X91691314Y-51027180D02*
X91610502Y-51107992D01*
X91610502Y-51107992D02*
X91475815Y-51188804D01*
X91475815Y-51188804D02*
X91395003Y-51215741D01*
X91395003Y-51215741D02*
X91287253Y-51215741D01*
X91287253Y-51215741D02*
X91179504Y-51161867D01*
X91179504Y-51161867D02*
X91044817Y-51027180D01*
X69989131Y-49237998D02*
X69962194Y-49157185D01*
X69962194Y-49157185D02*
X69881381Y-49076373D01*
X69881381Y-49076373D02*
X69773632Y-49022498D01*
X69773632Y-49022498D02*
X69665882Y-49022498D01*
X69665882Y-49022498D02*
X69585070Y-49049436D01*
X69585070Y-49049436D02*
X69450383Y-49130248D01*
X69450383Y-49130248D02*
X69369571Y-49211060D01*
X69369571Y-49211060D02*
X69288758Y-49345747D01*
X69288758Y-49345747D02*
X69261821Y-49426560D01*
X69261821Y-49426560D02*
X69261821Y-49534309D01*
X69261821Y-49534309D02*
X69315696Y-49642059D01*
X69315696Y-49642059D02*
X69369571Y-49695934D01*
X69369571Y-49695934D02*
X69477320Y-49749808D01*
X69477320Y-49749808D02*
X69531195Y-49749808D01*
X69531195Y-49749808D02*
X69719757Y-49561247D01*
X69719757Y-49561247D02*
X69612007Y-49453497D01*
X69719757Y-50046120D02*
X70285442Y-49480434D01*
X70285442Y-49480434D02*
X70500942Y-49695934D01*
X70500942Y-49695934D02*
X70527879Y-49776746D01*
X70527879Y-49776746D02*
X70527879Y-49830621D01*
X70527879Y-49830621D02*
X70500942Y-49911433D01*
X70500942Y-49911433D02*
X70420129Y-49992245D01*
X70420129Y-49992245D02*
X70339317Y-50019182D01*
X70339317Y-50019182D02*
X70285442Y-50019182D01*
X70285442Y-50019182D02*
X70204630Y-49992245D01*
X70204630Y-49992245D02*
X69989131Y-49776746D01*
X70581754Y-50908117D02*
X70258505Y-50584868D01*
X70420129Y-50746492D02*
X70985815Y-50180807D01*
X70985815Y-50180807D02*
X70851128Y-50207744D01*
X70851128Y-50207744D02*
X70743378Y-50207744D01*
X70743378Y-50207744D02*
X70662566Y-50180807D01*
X70851128Y-51177491D02*
X70958878Y-51285240D01*
X70958878Y-51285240D02*
X71039690Y-51312178D01*
X71039690Y-51312178D02*
X71093565Y-51312178D01*
X71093565Y-51312178D02*
X71228252Y-51285240D01*
X71228252Y-51285240D02*
X71362939Y-51204428D01*
X71362939Y-51204428D02*
X71578438Y-50988929D01*
X71578438Y-50988929D02*
X71605375Y-50908117D01*
X71605375Y-50908117D02*
X71605375Y-50854242D01*
X71605375Y-50854242D02*
X71578438Y-50773430D01*
X71578438Y-50773430D02*
X71470688Y-50665680D01*
X71470688Y-50665680D02*
X71389876Y-50638743D01*
X71389876Y-50638743D02*
X71336001Y-50638743D01*
X71336001Y-50638743D02*
X71255189Y-50665680D01*
X71255189Y-50665680D02*
X71120502Y-50800367D01*
X71120502Y-50800367D02*
X71093565Y-50881179D01*
X71093565Y-50881179D02*
X71093565Y-50935054D01*
X71093565Y-50935054D02*
X71120502Y-51015866D01*
X71120502Y-51015866D02*
X71228252Y-51123616D01*
X71228252Y-51123616D02*
X71309064Y-51150553D01*
X71309064Y-51150553D02*
X71362939Y-51150553D01*
X71362939Y-51150553D02*
X71443751Y-51123616D01*
X75069131Y-23129998D02*
X75042194Y-23049185D01*
X75042194Y-23049185D02*
X74961381Y-22968373D01*
X74961381Y-22968373D02*
X74853632Y-22914498D01*
X74853632Y-22914498D02*
X74745882Y-22914498D01*
X74745882Y-22914498D02*
X74665070Y-22941436D01*
X74665070Y-22941436D02*
X74530383Y-23022248D01*
X74530383Y-23022248D02*
X74449571Y-23103060D01*
X74449571Y-23103060D02*
X74368758Y-23237747D01*
X74368758Y-23237747D02*
X74341821Y-23318560D01*
X74341821Y-23318560D02*
X74341821Y-23426309D01*
X74341821Y-23426309D02*
X74395696Y-23534059D01*
X74395696Y-23534059D02*
X74449571Y-23587934D01*
X74449571Y-23587934D02*
X74557320Y-23641808D01*
X74557320Y-23641808D02*
X74611195Y-23641808D01*
X74611195Y-23641808D02*
X74799757Y-23453247D01*
X74799757Y-23453247D02*
X74692007Y-23345497D01*
X74799757Y-23938120D02*
X75365442Y-23372434D01*
X75365442Y-23372434D02*
X75580942Y-23587934D01*
X75580942Y-23587934D02*
X75607879Y-23668746D01*
X75607879Y-23668746D02*
X75607879Y-23722621D01*
X75607879Y-23722621D02*
X75580942Y-23803433D01*
X75580942Y-23803433D02*
X75500129Y-23884245D01*
X75500129Y-23884245D02*
X75419317Y-23911182D01*
X75419317Y-23911182D02*
X75365442Y-23911182D01*
X75365442Y-23911182D02*
X75284630Y-23884245D01*
X75284630Y-23884245D02*
X75069131Y-23668746D01*
X75661754Y-24800117D02*
X75338505Y-24476868D01*
X75500129Y-24638492D02*
X76065815Y-24072807D01*
X76065815Y-24072807D02*
X75931128Y-24099744D01*
X75931128Y-24099744D02*
X75823378Y-24099744D01*
X75823378Y-24099744D02*
X75742566Y-24072807D01*
X76577626Y-24584618D02*
X76631500Y-24638492D01*
X76631500Y-24638492D02*
X76658438Y-24719305D01*
X76658438Y-24719305D02*
X76658438Y-24773179D01*
X76658438Y-24773179D02*
X76631500Y-24853992D01*
X76631500Y-24853992D02*
X76550688Y-24988679D01*
X76550688Y-24988679D02*
X76416001Y-25123366D01*
X76416001Y-25123366D02*
X76281314Y-25204178D01*
X76281314Y-25204178D02*
X76200502Y-25231115D01*
X76200502Y-25231115D02*
X76146627Y-25231115D01*
X76146627Y-25231115D02*
X76065815Y-25204178D01*
X76065815Y-25204178D02*
X76011940Y-25150303D01*
X76011940Y-25150303D02*
X75985003Y-25069491D01*
X75985003Y-25069491D02*
X75985003Y-25015616D01*
X75985003Y-25015616D02*
X76011940Y-24934804D01*
X76011940Y-24934804D02*
X76092752Y-24800117D01*
X76092752Y-24800117D02*
X76227439Y-24665430D01*
X76227439Y-24665430D02*
X76362126Y-24584618D01*
X76362126Y-24584618D02*
X76442939Y-24557680D01*
X76442939Y-24557680D02*
X76496813Y-24557680D01*
X76496813Y-24557680D02*
X76577626Y-24584618D01*
X105279757Y-49060749D02*
X104902633Y-49814996D01*
X104902633Y-49814996D02*
X105656881Y-49437873D01*
X105279757Y-50138245D02*
X105333632Y-50245995D01*
X105333632Y-50245995D02*
X105468319Y-50380682D01*
X105468319Y-50380682D02*
X105549131Y-50407619D01*
X105549131Y-50407619D02*
X105603006Y-50407619D01*
X105603006Y-50407619D02*
X105683818Y-50380682D01*
X105683818Y-50380682D02*
X105737693Y-50326807D01*
X105737693Y-50326807D02*
X105764630Y-50245995D01*
X105764630Y-50245995D02*
X105764630Y-50192120D01*
X105764630Y-50192120D02*
X105737693Y-50111308D01*
X105737693Y-50111308D02*
X105656881Y-49976621D01*
X105656881Y-49976621D02*
X105629943Y-49895808D01*
X105629943Y-49895808D02*
X105629943Y-49841934D01*
X105629943Y-49841934D02*
X105656881Y-49761121D01*
X105656881Y-49761121D02*
X105710755Y-49707247D01*
X105710755Y-49707247D02*
X105791568Y-49680309D01*
X105791568Y-49680309D02*
X105845442Y-49680309D01*
X105845442Y-49680309D02*
X105926255Y-49707247D01*
X105926255Y-49707247D02*
X106060942Y-49841934D01*
X106060942Y-49841934D02*
X106114816Y-49949683D01*
X106195629Y-50569244D02*
X105926255Y-50838618D01*
X106303378Y-50084370D02*
X106195629Y-50569244D01*
X106195629Y-50569244D02*
X106680502Y-50461494D01*
X106303378Y-51161866D02*
X106357253Y-51269616D01*
X106357253Y-51269616D02*
X106491940Y-51404303D01*
X106491940Y-51404303D02*
X106572752Y-51431240D01*
X106572752Y-51431240D02*
X106626627Y-51431240D01*
X106626627Y-51431240D02*
X106707439Y-51404303D01*
X106707439Y-51404303D02*
X106761314Y-51350428D01*
X106761314Y-51350428D02*
X106788251Y-51269616D01*
X106788251Y-51269616D02*
X106788251Y-51215741D01*
X106788251Y-51215741D02*
X106761314Y-51134929D01*
X106761314Y-51134929D02*
X106680502Y-51000242D01*
X106680502Y-51000242D02*
X106653564Y-50919430D01*
X106653564Y-50919430D02*
X106653564Y-50865555D01*
X106653564Y-50865555D02*
X106680502Y-50784743D01*
X106680502Y-50784743D02*
X106734377Y-50730868D01*
X106734377Y-50730868D02*
X106815189Y-50703930D01*
X106815189Y-50703930D02*
X106869064Y-50703930D01*
X106869064Y-50703930D02*
X106949876Y-50730868D01*
X106949876Y-50730868D02*
X107084563Y-50865555D01*
X107084563Y-50865555D02*
X107138438Y-50973304D01*
X72529131Y-49237998D02*
X72502194Y-49157185D01*
X72502194Y-49157185D02*
X72421381Y-49076373D01*
X72421381Y-49076373D02*
X72313632Y-49022498D01*
X72313632Y-49022498D02*
X72205882Y-49022498D01*
X72205882Y-49022498D02*
X72125070Y-49049436D01*
X72125070Y-49049436D02*
X71990383Y-49130248D01*
X71990383Y-49130248D02*
X71909571Y-49211060D01*
X71909571Y-49211060D02*
X71828758Y-49345747D01*
X71828758Y-49345747D02*
X71801821Y-49426560D01*
X71801821Y-49426560D02*
X71801821Y-49534309D01*
X71801821Y-49534309D02*
X71855696Y-49642059D01*
X71855696Y-49642059D02*
X71909571Y-49695934D01*
X71909571Y-49695934D02*
X72017320Y-49749808D01*
X72017320Y-49749808D02*
X72071195Y-49749808D01*
X72071195Y-49749808D02*
X72259757Y-49561247D01*
X72259757Y-49561247D02*
X72152007Y-49453497D01*
X72259757Y-50046120D02*
X72825442Y-49480434D01*
X72825442Y-49480434D02*
X73040942Y-49695934D01*
X73040942Y-49695934D02*
X73067879Y-49776746D01*
X73067879Y-49776746D02*
X73067879Y-49830621D01*
X73067879Y-49830621D02*
X73040942Y-49911433D01*
X73040942Y-49911433D02*
X72960129Y-49992245D01*
X72960129Y-49992245D02*
X72879317Y-50019182D01*
X72879317Y-50019182D02*
X72825442Y-50019182D01*
X72825442Y-50019182D02*
X72744630Y-49992245D01*
X72744630Y-49992245D02*
X72529131Y-49776746D01*
X73310316Y-50073057D02*
X73364190Y-50073057D01*
X73364190Y-50073057D02*
X73445003Y-50099995D01*
X73445003Y-50099995D02*
X73579690Y-50234682D01*
X73579690Y-50234682D02*
X73606627Y-50315494D01*
X73606627Y-50315494D02*
X73606627Y-50369369D01*
X73606627Y-50369369D02*
X73579690Y-50450181D01*
X73579690Y-50450181D02*
X73525815Y-50504056D01*
X73525815Y-50504056D02*
X73418065Y-50557930D01*
X73418065Y-50557930D02*
X72771568Y-50557930D01*
X72771568Y-50557930D02*
X73121754Y-50908117D01*
X74037626Y-50692618D02*
X74091500Y-50746492D01*
X74091500Y-50746492D02*
X74118438Y-50827305D01*
X74118438Y-50827305D02*
X74118438Y-50881179D01*
X74118438Y-50881179D02*
X74091500Y-50961992D01*
X74091500Y-50961992D02*
X74010688Y-51096679D01*
X74010688Y-51096679D02*
X73876001Y-51231366D01*
X73876001Y-51231366D02*
X73741314Y-51312178D01*
X73741314Y-51312178D02*
X73660502Y-51339115D01*
X73660502Y-51339115D02*
X73606627Y-51339115D01*
X73606627Y-51339115D02*
X73525815Y-51312178D01*
X73525815Y-51312178D02*
X73471940Y-51258303D01*
X73471940Y-51258303D02*
X73445003Y-51177491D01*
X73445003Y-51177491D02*
X73445003Y-51123616D01*
X73445003Y-51123616D02*
X73471940Y-51042804D01*
X73471940Y-51042804D02*
X73552752Y-50908117D01*
X73552752Y-50908117D02*
X73687439Y-50773430D01*
X73687439Y-50773430D02*
X73822126Y-50692618D01*
X73822126Y-50692618D02*
X73902939Y-50665680D01*
X73902939Y-50665680D02*
X73956813Y-50665680D01*
X73956813Y-50665680D02*
X74037626Y-50692618D01*
X82958505Y-23653372D02*
X82931568Y-23572560D01*
X82931568Y-23572560D02*
X82850756Y-23491748D01*
X82850756Y-23491748D02*
X82743006Y-23437873D01*
X82743006Y-23437873D02*
X82635257Y-23437873D01*
X82635257Y-23437873D02*
X82554444Y-23464810D01*
X82554444Y-23464810D02*
X82419757Y-23545623D01*
X82419757Y-23545623D02*
X82338945Y-23626435D01*
X82338945Y-23626435D02*
X82258133Y-23761122D01*
X82258133Y-23761122D02*
X82231196Y-23841934D01*
X82231196Y-23841934D02*
X82231196Y-23949684D01*
X82231196Y-23949684D02*
X82285070Y-24057433D01*
X82285070Y-24057433D02*
X82338945Y-24111308D01*
X82338945Y-24111308D02*
X82446695Y-24165183D01*
X82446695Y-24165183D02*
X82500570Y-24165183D01*
X82500570Y-24165183D02*
X82689131Y-23976621D01*
X82689131Y-23976621D02*
X82581382Y-23868871D01*
X82689131Y-24461494D02*
X83254817Y-23895809D01*
X83254817Y-23895809D02*
X83470316Y-24111308D01*
X83470316Y-24111308D02*
X83497253Y-24192120D01*
X83497253Y-24192120D02*
X83497253Y-24245995D01*
X83497253Y-24245995D02*
X83470316Y-24326807D01*
X83470316Y-24326807D02*
X83389504Y-24407619D01*
X83389504Y-24407619D02*
X83308692Y-24434557D01*
X83308692Y-24434557D02*
X83254817Y-24434557D01*
X83254817Y-24434557D02*
X83174005Y-24407619D01*
X83174005Y-24407619D02*
X82958505Y-24192120D01*
X83658878Y-24784743D02*
X83631940Y-24703931D01*
X83631940Y-24703931D02*
X83631940Y-24650056D01*
X83631940Y-24650056D02*
X83658878Y-24569244D01*
X83658878Y-24569244D02*
X83685815Y-24542306D01*
X83685815Y-24542306D02*
X83766627Y-24515369D01*
X83766627Y-24515369D02*
X83820502Y-24515369D01*
X83820502Y-24515369D02*
X83901314Y-24542306D01*
X83901314Y-24542306D02*
X84009064Y-24650056D01*
X84009064Y-24650056D02*
X84036001Y-24730868D01*
X84036001Y-24730868D02*
X84036001Y-24784743D01*
X84036001Y-24784743D02*
X84009064Y-24865555D01*
X84009064Y-24865555D02*
X83982127Y-24892493D01*
X83982127Y-24892493D02*
X83901314Y-24919430D01*
X83901314Y-24919430D02*
X83847440Y-24919430D01*
X83847440Y-24919430D02*
X83766627Y-24892493D01*
X83766627Y-24892493D02*
X83658878Y-24784743D01*
X83658878Y-24784743D02*
X83578066Y-24757806D01*
X83578066Y-24757806D02*
X83524191Y-24757806D01*
X83524191Y-24757806D02*
X83443379Y-24784743D01*
X83443379Y-24784743D02*
X83335629Y-24892493D01*
X83335629Y-24892493D02*
X83308692Y-24973305D01*
X83308692Y-24973305D02*
X83308692Y-25027180D01*
X83308692Y-25027180D02*
X83335629Y-25107992D01*
X83335629Y-25107992D02*
X83443379Y-25215741D01*
X83443379Y-25215741D02*
X83524191Y-25242679D01*
X83524191Y-25242679D02*
X83578066Y-25242679D01*
X83578066Y-25242679D02*
X83658878Y-25215741D01*
X83658878Y-25215741D02*
X83766627Y-25107992D01*
X83766627Y-25107992D02*
X83793565Y-25027180D01*
X83793565Y-25027180D02*
X83793565Y-24973305D01*
X83793565Y-24973305D02*
X83766627Y-24892493D01*
X64851568Y-22426435D02*
X64824631Y-22345623D01*
X64824631Y-22345623D02*
X64743819Y-22264811D01*
X64743819Y-22264811D02*
X64636069Y-22210936D01*
X64636069Y-22210936D02*
X64528319Y-22210936D01*
X64528319Y-22210936D02*
X64447507Y-22237873D01*
X64447507Y-22237873D02*
X64312820Y-22318685D01*
X64312820Y-22318685D02*
X64232008Y-22399498D01*
X64232008Y-22399498D02*
X64151196Y-22534185D01*
X64151196Y-22534185D02*
X64124258Y-22614997D01*
X64124258Y-22614997D02*
X64124258Y-22722746D01*
X64124258Y-22722746D02*
X64178133Y-22830496D01*
X64178133Y-22830496D02*
X64232008Y-22884371D01*
X64232008Y-22884371D02*
X64339758Y-22938246D01*
X64339758Y-22938246D02*
X64393632Y-22938246D01*
X64393632Y-22938246D02*
X64582194Y-22749684D01*
X64582194Y-22749684D02*
X64474445Y-22641934D01*
X64582194Y-23234557D02*
X65147880Y-22668872D01*
X65147880Y-22668872D02*
X64905443Y-23557806D01*
X64905443Y-23557806D02*
X65471128Y-22992120D01*
X65174817Y-23827180D02*
X65740502Y-23261494D01*
X65740502Y-23261494D02*
X65875189Y-23396181D01*
X65875189Y-23396181D02*
X65929064Y-23503931D01*
X65929064Y-23503931D02*
X65929064Y-23611680D01*
X65929064Y-23611680D02*
X65902127Y-23692493D01*
X65902127Y-23692493D02*
X65821314Y-23827180D01*
X65821314Y-23827180D02*
X65740502Y-23907992D01*
X65740502Y-23907992D02*
X65605815Y-23988804D01*
X65605815Y-23988804D02*
X65525003Y-24015741D01*
X65525003Y-24015741D02*
X65417253Y-24015741D01*
X65417253Y-24015741D02*
X65309504Y-23961867D01*
X65309504Y-23961867D02*
X65174817Y-23827180D01*
X98198505Y-23653372D02*
X98171568Y-23572560D01*
X98171568Y-23572560D02*
X98090756Y-23491748D01*
X98090756Y-23491748D02*
X97983006Y-23437873D01*
X97983006Y-23437873D02*
X97875257Y-23437873D01*
X97875257Y-23437873D02*
X97794444Y-23464810D01*
X97794444Y-23464810D02*
X97659757Y-23545623D01*
X97659757Y-23545623D02*
X97578945Y-23626435D01*
X97578945Y-23626435D02*
X97498133Y-23761122D01*
X97498133Y-23761122D02*
X97471196Y-23841934D01*
X97471196Y-23841934D02*
X97471196Y-23949684D01*
X97471196Y-23949684D02*
X97525070Y-24057433D01*
X97525070Y-24057433D02*
X97578945Y-24111308D01*
X97578945Y-24111308D02*
X97686695Y-24165183D01*
X97686695Y-24165183D02*
X97740570Y-24165183D01*
X97740570Y-24165183D02*
X97929131Y-23976621D01*
X97929131Y-23976621D02*
X97821382Y-23868871D01*
X97929131Y-24461494D02*
X98494817Y-23895809D01*
X98494817Y-23895809D02*
X98710316Y-24111308D01*
X98710316Y-24111308D02*
X98737253Y-24192120D01*
X98737253Y-24192120D02*
X98737253Y-24245995D01*
X98737253Y-24245995D02*
X98710316Y-24326807D01*
X98710316Y-24326807D02*
X98629504Y-24407619D01*
X98629504Y-24407619D02*
X98548692Y-24434557D01*
X98548692Y-24434557D02*
X98494817Y-24434557D01*
X98494817Y-24434557D02*
X98414005Y-24407619D01*
X98414005Y-24407619D02*
X98198505Y-24192120D01*
X99006627Y-24407619D02*
X99356814Y-24757806D01*
X99356814Y-24757806D02*
X98952753Y-24784743D01*
X98952753Y-24784743D02*
X99033565Y-24865555D01*
X99033565Y-24865555D02*
X99060502Y-24946367D01*
X99060502Y-24946367D02*
X99060502Y-25000242D01*
X99060502Y-25000242D02*
X99033565Y-25081054D01*
X99033565Y-25081054D02*
X98898878Y-25215741D01*
X98898878Y-25215741D02*
X98818066Y-25242679D01*
X98818066Y-25242679D02*
X98764191Y-25242679D01*
X98764191Y-25242679D02*
X98683379Y-25215741D01*
X98683379Y-25215741D02*
X98521754Y-25054117D01*
X98521754Y-25054117D02*
X98494817Y-24973305D01*
X98494817Y-24973305D02*
X98494817Y-24919430D01*
X85528505Y-23753372D02*
X85501568Y-23672560D01*
X85501568Y-23672560D02*
X85420756Y-23591748D01*
X85420756Y-23591748D02*
X85313006Y-23537873D01*
X85313006Y-23537873D02*
X85205257Y-23537873D01*
X85205257Y-23537873D02*
X85124444Y-23564810D01*
X85124444Y-23564810D02*
X84989757Y-23645623D01*
X84989757Y-23645623D02*
X84908945Y-23726435D01*
X84908945Y-23726435D02*
X84828133Y-23861122D01*
X84828133Y-23861122D02*
X84801196Y-23941934D01*
X84801196Y-23941934D02*
X84801196Y-24049684D01*
X84801196Y-24049684D02*
X84855070Y-24157433D01*
X84855070Y-24157433D02*
X84908945Y-24211308D01*
X84908945Y-24211308D02*
X85016695Y-24265183D01*
X85016695Y-24265183D02*
X85070570Y-24265183D01*
X85070570Y-24265183D02*
X85259131Y-24076621D01*
X85259131Y-24076621D02*
X85151382Y-23968871D01*
X85259131Y-24561494D02*
X85824817Y-23995809D01*
X85824817Y-23995809D02*
X86040316Y-24211308D01*
X86040316Y-24211308D02*
X86067253Y-24292120D01*
X86067253Y-24292120D02*
X86067253Y-24345995D01*
X86067253Y-24345995D02*
X86040316Y-24426807D01*
X86040316Y-24426807D02*
X85959504Y-24507619D01*
X85959504Y-24507619D02*
X85878692Y-24534557D01*
X85878692Y-24534557D02*
X85824817Y-24534557D01*
X85824817Y-24534557D02*
X85744005Y-24507619D01*
X85744005Y-24507619D02*
X85528505Y-24292120D01*
X86336627Y-24507619D02*
X86713751Y-24884743D01*
X86713751Y-24884743D02*
X85905629Y-25207992D01*
X67449131Y-23129998D02*
X67422194Y-23049185D01*
X67422194Y-23049185D02*
X67341381Y-22968373D01*
X67341381Y-22968373D02*
X67233632Y-22914498D01*
X67233632Y-22914498D02*
X67125882Y-22914498D01*
X67125882Y-22914498D02*
X67045070Y-22941436D01*
X67045070Y-22941436D02*
X66910383Y-23022248D01*
X66910383Y-23022248D02*
X66829571Y-23103060D01*
X66829571Y-23103060D02*
X66748758Y-23237747D01*
X66748758Y-23237747D02*
X66721821Y-23318560D01*
X66721821Y-23318560D02*
X66721821Y-23426309D01*
X66721821Y-23426309D02*
X66775696Y-23534059D01*
X66775696Y-23534059D02*
X66829571Y-23587934D01*
X66829571Y-23587934D02*
X66937320Y-23641808D01*
X66937320Y-23641808D02*
X66991195Y-23641808D01*
X66991195Y-23641808D02*
X67179757Y-23453247D01*
X67179757Y-23453247D02*
X67072007Y-23345497D01*
X67179757Y-23938120D02*
X67745442Y-23372434D01*
X67745442Y-23372434D02*
X67960942Y-23587934D01*
X67960942Y-23587934D02*
X67987879Y-23668746D01*
X67987879Y-23668746D02*
X67987879Y-23722621D01*
X67987879Y-23722621D02*
X67960942Y-23803433D01*
X67960942Y-23803433D02*
X67880129Y-23884245D01*
X67880129Y-23884245D02*
X67799317Y-23911182D01*
X67799317Y-23911182D02*
X67745442Y-23911182D01*
X67745442Y-23911182D02*
X67664630Y-23884245D01*
X67664630Y-23884245D02*
X67449131Y-23668746D01*
X68041754Y-24800117D02*
X67718505Y-24476868D01*
X67880129Y-24638492D02*
X68445815Y-24072807D01*
X68445815Y-24072807D02*
X68311128Y-24099744D01*
X68311128Y-24099744D02*
X68203378Y-24099744D01*
X68203378Y-24099744D02*
X68122566Y-24072807D01*
X68796001Y-24422993D02*
X69146187Y-24773179D01*
X69146187Y-24773179D02*
X68742126Y-24800117D01*
X68742126Y-24800117D02*
X68822939Y-24880929D01*
X68822939Y-24880929D02*
X68849876Y-24961741D01*
X68849876Y-24961741D02*
X68849876Y-25015616D01*
X68849876Y-25015616D02*
X68822939Y-25096428D01*
X68822939Y-25096428D02*
X68688252Y-25231115D01*
X68688252Y-25231115D02*
X68607439Y-25258053D01*
X68607439Y-25258053D02*
X68553565Y-25258053D01*
X68553565Y-25258053D02*
X68472752Y-25231115D01*
X68472752Y-25231115D02*
X68311128Y-25069491D01*
X68311128Y-25069491D02*
X68284191Y-24988679D01*
X68284191Y-24988679D02*
X68284191Y-24934804D01*
X80149131Y-49237998D02*
X80122194Y-49157185D01*
X80122194Y-49157185D02*
X80041381Y-49076373D01*
X80041381Y-49076373D02*
X79933632Y-49022498D01*
X79933632Y-49022498D02*
X79825882Y-49022498D01*
X79825882Y-49022498D02*
X79745070Y-49049436D01*
X79745070Y-49049436D02*
X79610383Y-49130248D01*
X79610383Y-49130248D02*
X79529571Y-49211060D01*
X79529571Y-49211060D02*
X79448758Y-49345747D01*
X79448758Y-49345747D02*
X79421821Y-49426560D01*
X79421821Y-49426560D02*
X79421821Y-49534309D01*
X79421821Y-49534309D02*
X79475696Y-49642059D01*
X79475696Y-49642059D02*
X79529571Y-49695934D01*
X79529571Y-49695934D02*
X79637320Y-49749808D01*
X79637320Y-49749808D02*
X79691195Y-49749808D01*
X79691195Y-49749808D02*
X79879757Y-49561247D01*
X79879757Y-49561247D02*
X79772007Y-49453497D01*
X79879757Y-50046120D02*
X80445442Y-49480434D01*
X80445442Y-49480434D02*
X80660942Y-49695934D01*
X80660942Y-49695934D02*
X80687879Y-49776746D01*
X80687879Y-49776746D02*
X80687879Y-49830621D01*
X80687879Y-49830621D02*
X80660942Y-49911433D01*
X80660942Y-49911433D02*
X80580129Y-49992245D01*
X80580129Y-49992245D02*
X80499317Y-50019182D01*
X80499317Y-50019182D02*
X80445442Y-50019182D01*
X80445442Y-50019182D02*
X80364630Y-49992245D01*
X80364630Y-49992245D02*
X80149131Y-49776746D01*
X80930316Y-50073057D02*
X80984190Y-50073057D01*
X80984190Y-50073057D02*
X81065003Y-50099995D01*
X81065003Y-50099995D02*
X81199690Y-50234682D01*
X81199690Y-50234682D02*
X81226627Y-50315494D01*
X81226627Y-50315494D02*
X81226627Y-50369369D01*
X81226627Y-50369369D02*
X81199690Y-50450181D01*
X81199690Y-50450181D02*
X81145815Y-50504056D01*
X81145815Y-50504056D02*
X81038065Y-50557930D01*
X81038065Y-50557930D02*
X80391568Y-50557930D01*
X80391568Y-50557930D02*
X80741754Y-50908117D01*
X81469064Y-50611805D02*
X81522939Y-50611805D01*
X81522939Y-50611805D02*
X81603751Y-50638743D01*
X81603751Y-50638743D02*
X81738438Y-50773430D01*
X81738438Y-50773430D02*
X81765375Y-50854242D01*
X81765375Y-50854242D02*
X81765375Y-50908117D01*
X81765375Y-50908117D02*
X81738438Y-50988929D01*
X81738438Y-50988929D02*
X81684563Y-51042804D01*
X81684563Y-51042804D02*
X81576813Y-51096679D01*
X81576813Y-51096679D02*
X80930316Y-51096679D01*
X80930316Y-51096679D02*
X81280502Y-51446865D01*
X108358505Y-23653372D02*
X108331568Y-23572560D01*
X108331568Y-23572560D02*
X108250756Y-23491748D01*
X108250756Y-23491748D02*
X108143006Y-23437873D01*
X108143006Y-23437873D02*
X108035257Y-23437873D01*
X108035257Y-23437873D02*
X107954444Y-23464810D01*
X107954444Y-23464810D02*
X107819757Y-23545623D01*
X107819757Y-23545623D02*
X107738945Y-23626435D01*
X107738945Y-23626435D02*
X107658133Y-23761122D01*
X107658133Y-23761122D02*
X107631196Y-23841934D01*
X107631196Y-23841934D02*
X107631196Y-23949684D01*
X107631196Y-23949684D02*
X107685070Y-24057433D01*
X107685070Y-24057433D02*
X107738945Y-24111308D01*
X107738945Y-24111308D02*
X107846695Y-24165183D01*
X107846695Y-24165183D02*
X107900570Y-24165183D01*
X107900570Y-24165183D02*
X108089131Y-23976621D01*
X108089131Y-23976621D02*
X107981382Y-23868871D01*
X108089131Y-24461494D02*
X108654817Y-23895809D01*
X108654817Y-23895809D02*
X108870316Y-24111308D01*
X108870316Y-24111308D02*
X108897253Y-24192120D01*
X108897253Y-24192120D02*
X108897253Y-24245995D01*
X108897253Y-24245995D02*
X108870316Y-24326807D01*
X108870316Y-24326807D02*
X108789504Y-24407619D01*
X108789504Y-24407619D02*
X108708692Y-24434557D01*
X108708692Y-24434557D02*
X108654817Y-24434557D01*
X108654817Y-24434557D02*
X108574005Y-24407619D01*
X108574005Y-24407619D02*
X108358505Y-24192120D01*
X109328252Y-24569244D02*
X109382127Y-24623119D01*
X109382127Y-24623119D02*
X109409064Y-24703931D01*
X109409064Y-24703931D02*
X109409064Y-24757806D01*
X109409064Y-24757806D02*
X109382127Y-24838618D01*
X109382127Y-24838618D02*
X109301314Y-24973305D01*
X109301314Y-24973305D02*
X109166627Y-25107992D01*
X109166627Y-25107992D02*
X109031940Y-25188804D01*
X109031940Y-25188804D02*
X108951128Y-25215741D01*
X108951128Y-25215741D02*
X108897253Y-25215741D01*
X108897253Y-25215741D02*
X108816441Y-25188804D01*
X108816441Y-25188804D02*
X108762566Y-25134929D01*
X108762566Y-25134929D02*
X108735629Y-25054117D01*
X108735629Y-25054117D02*
X108735629Y-25000242D01*
X108735629Y-25000242D02*
X108762566Y-24919430D01*
X108762566Y-24919430D02*
X108843379Y-24784743D01*
X108843379Y-24784743D02*
X108978066Y-24650056D01*
X108978066Y-24650056D02*
X109112753Y-24569244D01*
X109112753Y-24569244D02*
X109193565Y-24542306D01*
X109193565Y-24542306D02*
X109247440Y-24542306D01*
X109247440Y-24542306D02*
X109328252Y-24569244D01*
X62369131Y-49237998D02*
X62342194Y-49157185D01*
X62342194Y-49157185D02*
X62261381Y-49076373D01*
X62261381Y-49076373D02*
X62153632Y-49022498D01*
X62153632Y-49022498D02*
X62045882Y-49022498D01*
X62045882Y-49022498D02*
X61965070Y-49049436D01*
X61965070Y-49049436D02*
X61830383Y-49130248D01*
X61830383Y-49130248D02*
X61749571Y-49211060D01*
X61749571Y-49211060D02*
X61668758Y-49345747D01*
X61668758Y-49345747D02*
X61641821Y-49426560D01*
X61641821Y-49426560D02*
X61641821Y-49534309D01*
X61641821Y-49534309D02*
X61695696Y-49642059D01*
X61695696Y-49642059D02*
X61749571Y-49695934D01*
X61749571Y-49695934D02*
X61857320Y-49749808D01*
X61857320Y-49749808D02*
X61911195Y-49749808D01*
X61911195Y-49749808D02*
X62099757Y-49561247D01*
X62099757Y-49561247D02*
X61992007Y-49453497D01*
X62099757Y-50046120D02*
X62665442Y-49480434D01*
X62665442Y-49480434D02*
X62880942Y-49695934D01*
X62880942Y-49695934D02*
X62907879Y-49776746D01*
X62907879Y-49776746D02*
X62907879Y-49830621D01*
X62907879Y-49830621D02*
X62880942Y-49911433D01*
X62880942Y-49911433D02*
X62800129Y-49992245D01*
X62800129Y-49992245D02*
X62719317Y-50019182D01*
X62719317Y-50019182D02*
X62665442Y-50019182D01*
X62665442Y-50019182D02*
X62584630Y-49992245D01*
X62584630Y-49992245D02*
X62369131Y-49776746D01*
X62961754Y-50908117D02*
X62638505Y-50584868D01*
X62800129Y-50746492D02*
X63365815Y-50180807D01*
X63365815Y-50180807D02*
X63231128Y-50207744D01*
X63231128Y-50207744D02*
X63123378Y-50207744D01*
X63123378Y-50207744D02*
X63042566Y-50180807D01*
X63716001Y-50530993D02*
X64093125Y-50908117D01*
X64093125Y-50908117D02*
X63285003Y-51231366D01*
X105828505Y-23553372D02*
X105801568Y-23472560D01*
X105801568Y-23472560D02*
X105720756Y-23391748D01*
X105720756Y-23391748D02*
X105613006Y-23337873D01*
X105613006Y-23337873D02*
X105505257Y-23337873D01*
X105505257Y-23337873D02*
X105424444Y-23364810D01*
X105424444Y-23364810D02*
X105289757Y-23445623D01*
X105289757Y-23445623D02*
X105208945Y-23526435D01*
X105208945Y-23526435D02*
X105128133Y-23661122D01*
X105128133Y-23661122D02*
X105101196Y-23741934D01*
X105101196Y-23741934D02*
X105101196Y-23849684D01*
X105101196Y-23849684D02*
X105155070Y-23957433D01*
X105155070Y-23957433D02*
X105208945Y-24011308D01*
X105208945Y-24011308D02*
X105316695Y-24065183D01*
X105316695Y-24065183D02*
X105370570Y-24065183D01*
X105370570Y-24065183D02*
X105559131Y-23876621D01*
X105559131Y-23876621D02*
X105451382Y-23768871D01*
X105559131Y-24361494D02*
X106124817Y-23795809D01*
X106124817Y-23795809D02*
X106340316Y-24011308D01*
X106340316Y-24011308D02*
X106367253Y-24092120D01*
X106367253Y-24092120D02*
X106367253Y-24145995D01*
X106367253Y-24145995D02*
X106340316Y-24226807D01*
X106340316Y-24226807D02*
X106259504Y-24307619D01*
X106259504Y-24307619D02*
X106178692Y-24334557D01*
X106178692Y-24334557D02*
X106124817Y-24334557D01*
X106124817Y-24334557D02*
X106044005Y-24307619D01*
X106044005Y-24307619D02*
X105828505Y-24092120D01*
X106421128Y-25223491D02*
X106097879Y-24900242D01*
X106259504Y-25061867D02*
X106825189Y-24496181D01*
X106825189Y-24496181D02*
X106690502Y-24523119D01*
X106690502Y-24523119D02*
X106582753Y-24523119D01*
X106582753Y-24523119D02*
X106501940Y-24496181D01*
X77551568Y-22426435D02*
X77524631Y-22345623D01*
X77524631Y-22345623D02*
X77443819Y-22264811D01*
X77443819Y-22264811D02*
X77336069Y-22210936D01*
X77336069Y-22210936D02*
X77228319Y-22210936D01*
X77228319Y-22210936D02*
X77147507Y-22237873D01*
X77147507Y-22237873D02*
X77012820Y-22318685D01*
X77012820Y-22318685D02*
X76932008Y-22399498D01*
X76932008Y-22399498D02*
X76851196Y-22534185D01*
X76851196Y-22534185D02*
X76824258Y-22614997D01*
X76824258Y-22614997D02*
X76824258Y-22722746D01*
X76824258Y-22722746D02*
X76878133Y-22830496D01*
X76878133Y-22830496D02*
X76932008Y-22884371D01*
X76932008Y-22884371D02*
X77039758Y-22938246D01*
X77039758Y-22938246D02*
X77093632Y-22938246D01*
X77093632Y-22938246D02*
X77282194Y-22749684D01*
X77282194Y-22749684D02*
X77174445Y-22641934D01*
X77282194Y-23234557D02*
X77847880Y-22668872D01*
X77847880Y-22668872D02*
X77605443Y-23557806D01*
X77605443Y-23557806D02*
X78171128Y-22992120D01*
X77874817Y-23827180D02*
X78440502Y-23261494D01*
X78440502Y-23261494D02*
X78575189Y-23396181D01*
X78575189Y-23396181D02*
X78629064Y-23503931D01*
X78629064Y-23503931D02*
X78629064Y-23611680D01*
X78629064Y-23611680D02*
X78602127Y-23692493D01*
X78602127Y-23692493D02*
X78521314Y-23827180D01*
X78521314Y-23827180D02*
X78440502Y-23907992D01*
X78440502Y-23907992D02*
X78305815Y-23988804D01*
X78305815Y-23988804D02*
X78225003Y-24015741D01*
X78225003Y-24015741D02*
X78117253Y-24015741D01*
X78117253Y-24015741D02*
X78009504Y-23961867D01*
X78009504Y-23961867D02*
X77874817Y-23827180D01*
X62369131Y-23083998D02*
X62342194Y-23003185D01*
X62342194Y-23003185D02*
X62261381Y-22922373D01*
X62261381Y-22922373D02*
X62153632Y-22868498D01*
X62153632Y-22868498D02*
X62045882Y-22868498D01*
X62045882Y-22868498D02*
X61965070Y-22895436D01*
X61965070Y-22895436D02*
X61830383Y-22976248D01*
X61830383Y-22976248D02*
X61749571Y-23057060D01*
X61749571Y-23057060D02*
X61668758Y-23191747D01*
X61668758Y-23191747D02*
X61641821Y-23272560D01*
X61641821Y-23272560D02*
X61641821Y-23380309D01*
X61641821Y-23380309D02*
X61695696Y-23488059D01*
X61695696Y-23488059D02*
X61749571Y-23541934D01*
X61749571Y-23541934D02*
X61857320Y-23595808D01*
X61857320Y-23595808D02*
X61911195Y-23595808D01*
X61911195Y-23595808D02*
X62099757Y-23407247D01*
X62099757Y-23407247D02*
X61992007Y-23299497D01*
X62099757Y-23892120D02*
X62665442Y-23326434D01*
X62665442Y-23326434D02*
X62880942Y-23541934D01*
X62880942Y-23541934D02*
X62907879Y-23622746D01*
X62907879Y-23622746D02*
X62907879Y-23676621D01*
X62907879Y-23676621D02*
X62880942Y-23757433D01*
X62880942Y-23757433D02*
X62800129Y-23838245D01*
X62800129Y-23838245D02*
X62719317Y-23865182D01*
X62719317Y-23865182D02*
X62665442Y-23865182D01*
X62665442Y-23865182D02*
X62584630Y-23838245D01*
X62584630Y-23838245D02*
X62369131Y-23622746D01*
X62961754Y-24754117D02*
X62638505Y-24430868D01*
X62800129Y-24592492D02*
X63365815Y-24026807D01*
X63365815Y-24026807D02*
X63231128Y-24053744D01*
X63231128Y-24053744D02*
X63123378Y-24053744D01*
X63123378Y-24053744D02*
X63042566Y-24026807D01*
X63823751Y-24861866D02*
X63446627Y-25238990D01*
X63904563Y-24511680D02*
X63365815Y-24781054D01*
X63365815Y-24781054D02*
X63716001Y-25131240D01*
X32704819Y-75160238D02*
X32228628Y-75493571D01*
X32704819Y-75731666D02*
X31704819Y-75731666D01*
X31704819Y-75731666D02*
X31704819Y-75350714D01*
X31704819Y-75350714D02*
X31752438Y-75255476D01*
X31752438Y-75255476D02*
X31800057Y-75207857D01*
X31800057Y-75207857D02*
X31895295Y-75160238D01*
X31895295Y-75160238D02*
X32038152Y-75160238D01*
X32038152Y-75160238D02*
X32133390Y-75207857D01*
X32133390Y-75207857D02*
X32181009Y-75255476D01*
X32181009Y-75255476D02*
X32228628Y-75350714D01*
X32228628Y-75350714D02*
X32228628Y-75731666D01*
X31704819Y-74874523D02*
X32704819Y-74541190D01*
X32704819Y-74541190D02*
X31704819Y-74207857D01*
X32038152Y-73445952D02*
X32704819Y-73445952D01*
X31657200Y-73684047D02*
X32371485Y-73922142D01*
X32371485Y-73922142D02*
X32371485Y-73303095D01*
X142226190Y-16094819D02*
X142226190Y-15094819D01*
X142226190Y-15571009D02*
X142797618Y-15571009D01*
X142797618Y-16094819D02*
X142797618Y-15094819D01*
X143464285Y-15094819D02*
X143654761Y-15094819D01*
X143654761Y-15094819D02*
X143749999Y-15142438D01*
X143749999Y-15142438D02*
X143845237Y-15237676D01*
X143845237Y-15237676D02*
X143892856Y-15428152D01*
X143892856Y-15428152D02*
X143892856Y-15761485D01*
X143892856Y-15761485D02*
X143845237Y-15951961D01*
X143845237Y-15951961D02*
X143749999Y-16047200D01*
X143749999Y-16047200D02*
X143654761Y-16094819D01*
X143654761Y-16094819D02*
X143464285Y-16094819D01*
X143464285Y-16094819D02*
X143369047Y-16047200D01*
X143369047Y-16047200D02*
X143273809Y-15951961D01*
X143273809Y-15951961D02*
X143226190Y-15761485D01*
X143226190Y-15761485D02*
X143226190Y-15428152D01*
X143226190Y-15428152D02*
X143273809Y-15237676D01*
X143273809Y-15237676D02*
X143369047Y-15142438D01*
X143369047Y-15142438D02*
X143464285Y-15094819D01*
X144797618Y-16094819D02*
X144321428Y-16094819D01*
X144321428Y-16094819D02*
X144321428Y-15094819D01*
X145130952Y-15571009D02*
X145464285Y-15571009D01*
X145607142Y-16094819D02*
X145130952Y-16094819D01*
X145130952Y-16094819D02*
X145130952Y-15094819D01*
X145130952Y-15094819D02*
X145607142Y-15094819D01*
X145797619Y-16190057D02*
X146559523Y-16190057D01*
X146750000Y-15190057D02*
X146797619Y-15142438D01*
X146797619Y-15142438D02*
X146892857Y-15094819D01*
X146892857Y-15094819D02*
X147130952Y-15094819D01*
X147130952Y-15094819D02*
X147226190Y-15142438D01*
X147226190Y-15142438D02*
X147273809Y-15190057D01*
X147273809Y-15190057D02*
X147321428Y-15285295D01*
X147321428Y-15285295D02*
X147321428Y-15380533D01*
X147321428Y-15380533D02*
X147273809Y-15523390D01*
X147273809Y-15523390D02*
X146702381Y-16094819D01*
X146702381Y-16094819D02*
X147321428Y-16094819D01*
X122704819Y-75160238D02*
X122228628Y-75493571D01*
X122704819Y-75731666D02*
X121704819Y-75731666D01*
X121704819Y-75731666D02*
X121704819Y-75350714D01*
X121704819Y-75350714D02*
X121752438Y-75255476D01*
X121752438Y-75255476D02*
X121800057Y-75207857D01*
X121800057Y-75207857D02*
X121895295Y-75160238D01*
X121895295Y-75160238D02*
X122038152Y-75160238D01*
X122038152Y-75160238D02*
X122133390Y-75207857D01*
X122133390Y-75207857D02*
X122181009Y-75255476D01*
X122181009Y-75255476D02*
X122228628Y-75350714D01*
X122228628Y-75350714D02*
X122228628Y-75731666D01*
X121704819Y-74874523D02*
X122704819Y-74541190D01*
X122704819Y-74541190D02*
X121704819Y-74207857D01*
X122704819Y-73350714D02*
X122704819Y-73922142D01*
X122704819Y-73636428D02*
X121704819Y-73636428D01*
X121704819Y-73636428D02*
X121847676Y-73731666D01*
X121847676Y-73731666D02*
X121942914Y-73826904D01*
X121942914Y-73826904D02*
X121990533Y-73922142D01*
X22226190Y-16094819D02*
X22226190Y-15094819D01*
X22226190Y-15571009D02*
X22797618Y-15571009D01*
X22797618Y-16094819D02*
X22797618Y-15094819D01*
X23464285Y-15094819D02*
X23654761Y-15094819D01*
X23654761Y-15094819D02*
X23749999Y-15142438D01*
X23749999Y-15142438D02*
X23845237Y-15237676D01*
X23845237Y-15237676D02*
X23892856Y-15428152D01*
X23892856Y-15428152D02*
X23892856Y-15761485D01*
X23892856Y-15761485D02*
X23845237Y-15951961D01*
X23845237Y-15951961D02*
X23749999Y-16047200D01*
X23749999Y-16047200D02*
X23654761Y-16094819D01*
X23654761Y-16094819D02*
X23464285Y-16094819D01*
X23464285Y-16094819D02*
X23369047Y-16047200D01*
X23369047Y-16047200D02*
X23273809Y-15951961D01*
X23273809Y-15951961D02*
X23226190Y-15761485D01*
X23226190Y-15761485D02*
X23226190Y-15428152D01*
X23226190Y-15428152D02*
X23273809Y-15237676D01*
X23273809Y-15237676D02*
X23369047Y-15142438D01*
X23369047Y-15142438D02*
X23464285Y-15094819D01*
X24797618Y-16094819D02*
X24321428Y-16094819D01*
X24321428Y-16094819D02*
X24321428Y-15094819D01*
X25130952Y-15571009D02*
X25464285Y-15571009D01*
X25607142Y-16094819D02*
X25130952Y-16094819D01*
X25130952Y-16094819D02*
X25130952Y-15094819D01*
X25130952Y-15094819D02*
X25607142Y-15094819D01*
X25797619Y-16190057D02*
X26559523Y-16190057D01*
X27321428Y-16094819D02*
X26750000Y-16094819D01*
X27035714Y-16094819D02*
X27035714Y-15094819D01*
X27035714Y-15094819D02*
X26940476Y-15237676D01*
X26940476Y-15237676D02*
X26845238Y-15332914D01*
X26845238Y-15332914D02*
X26750000Y-15380533D01*
X22226190Y-136094819D02*
X22226190Y-135094819D01*
X22226190Y-135571009D02*
X22797618Y-135571009D01*
X22797618Y-136094819D02*
X22797618Y-135094819D01*
X23464285Y-135094819D02*
X23654761Y-135094819D01*
X23654761Y-135094819D02*
X23749999Y-135142438D01*
X23749999Y-135142438D02*
X23845237Y-135237676D01*
X23845237Y-135237676D02*
X23892856Y-135428152D01*
X23892856Y-135428152D02*
X23892856Y-135761485D01*
X23892856Y-135761485D02*
X23845237Y-135951961D01*
X23845237Y-135951961D02*
X23749999Y-136047200D01*
X23749999Y-136047200D02*
X23654761Y-136094819D01*
X23654761Y-136094819D02*
X23464285Y-136094819D01*
X23464285Y-136094819D02*
X23369047Y-136047200D01*
X23369047Y-136047200D02*
X23273809Y-135951961D01*
X23273809Y-135951961D02*
X23226190Y-135761485D01*
X23226190Y-135761485D02*
X23226190Y-135428152D01*
X23226190Y-135428152D02*
X23273809Y-135237676D01*
X23273809Y-135237676D02*
X23369047Y-135142438D01*
X23369047Y-135142438D02*
X23464285Y-135094819D01*
X24797618Y-136094819D02*
X24321428Y-136094819D01*
X24321428Y-136094819D02*
X24321428Y-135094819D01*
X25130952Y-135571009D02*
X25464285Y-135571009D01*
X25607142Y-136094819D02*
X25130952Y-136094819D01*
X25130952Y-136094819D02*
X25130952Y-135094819D01*
X25130952Y-135094819D02*
X25607142Y-135094819D01*
X25797619Y-136190057D02*
X26559523Y-136190057D01*
X26702381Y-135094819D02*
X27321428Y-135094819D01*
X27321428Y-135094819D02*
X26988095Y-135475771D01*
X26988095Y-135475771D02*
X27130952Y-135475771D01*
X27130952Y-135475771D02*
X27226190Y-135523390D01*
X27226190Y-135523390D02*
X27273809Y-135571009D01*
X27273809Y-135571009D02*
X27321428Y-135666247D01*
X27321428Y-135666247D02*
X27321428Y-135904342D01*
X27321428Y-135904342D02*
X27273809Y-135999580D01*
X27273809Y-135999580D02*
X27226190Y-136047200D01*
X27226190Y-136047200D02*
X27130952Y-136094819D01*
X27130952Y-136094819D02*
X26845238Y-136094819D01*
X26845238Y-136094819D02*
X26750000Y-136047200D01*
X26750000Y-136047200D02*
X26702381Y-135999580D01*
X92704819Y-75160238D02*
X92228628Y-75493571D01*
X92704819Y-75731666D02*
X91704819Y-75731666D01*
X91704819Y-75731666D02*
X91704819Y-75350714D01*
X91704819Y-75350714D02*
X91752438Y-75255476D01*
X91752438Y-75255476D02*
X91800057Y-75207857D01*
X91800057Y-75207857D02*
X91895295Y-75160238D01*
X91895295Y-75160238D02*
X92038152Y-75160238D01*
X92038152Y-75160238D02*
X92133390Y-75207857D01*
X92133390Y-75207857D02*
X92181009Y-75255476D01*
X92181009Y-75255476D02*
X92228628Y-75350714D01*
X92228628Y-75350714D02*
X92228628Y-75731666D01*
X91704819Y-74874523D02*
X92704819Y-74541190D01*
X92704819Y-74541190D02*
X91704819Y-74207857D01*
X91800057Y-73922142D02*
X91752438Y-73874523D01*
X91752438Y-73874523D02*
X91704819Y-73779285D01*
X91704819Y-73779285D02*
X91704819Y-73541190D01*
X91704819Y-73541190D02*
X91752438Y-73445952D01*
X91752438Y-73445952D02*
X91800057Y-73398333D01*
X91800057Y-73398333D02*
X91895295Y-73350714D01*
X91895295Y-73350714D02*
X91990533Y-73350714D01*
X91990533Y-73350714D02*
X92133390Y-73398333D01*
X92133390Y-73398333D02*
X92704819Y-73969761D01*
X92704819Y-73969761D02*
X92704819Y-73350714D01*
X142226190Y-136094819D02*
X142226190Y-135094819D01*
X142226190Y-135571009D02*
X142797618Y-135571009D01*
X142797618Y-136094819D02*
X142797618Y-135094819D01*
X143464285Y-135094819D02*
X143654761Y-135094819D01*
X143654761Y-135094819D02*
X143749999Y-135142438D01*
X143749999Y-135142438D02*
X143845237Y-135237676D01*
X143845237Y-135237676D02*
X143892856Y-135428152D01*
X143892856Y-135428152D02*
X143892856Y-135761485D01*
X143892856Y-135761485D02*
X143845237Y-135951961D01*
X143845237Y-135951961D02*
X143749999Y-136047200D01*
X143749999Y-136047200D02*
X143654761Y-136094819D01*
X143654761Y-136094819D02*
X143464285Y-136094819D01*
X143464285Y-136094819D02*
X143369047Y-136047200D01*
X143369047Y-136047200D02*
X143273809Y-135951961D01*
X143273809Y-135951961D02*
X143226190Y-135761485D01*
X143226190Y-135761485D02*
X143226190Y-135428152D01*
X143226190Y-135428152D02*
X143273809Y-135237676D01*
X143273809Y-135237676D02*
X143369047Y-135142438D01*
X143369047Y-135142438D02*
X143464285Y-135094819D01*
X144797618Y-136094819D02*
X144321428Y-136094819D01*
X144321428Y-136094819D02*
X144321428Y-135094819D01*
X145130952Y-135571009D02*
X145464285Y-135571009D01*
X145607142Y-136094819D02*
X145130952Y-136094819D01*
X145130952Y-136094819D02*
X145130952Y-135094819D01*
X145130952Y-135094819D02*
X145607142Y-135094819D01*
X145797619Y-136190057D02*
X146559523Y-136190057D01*
X147226190Y-135428152D02*
X147226190Y-136094819D01*
X146988095Y-135047200D02*
X146750000Y-135761485D01*
X146750000Y-135761485D02*
X147369047Y-135761485D01*
X62704819Y-75160238D02*
X62228628Y-75493571D01*
X62704819Y-75731666D02*
X61704819Y-75731666D01*
X61704819Y-75731666D02*
X61704819Y-75350714D01*
X61704819Y-75350714D02*
X61752438Y-75255476D01*
X61752438Y-75255476D02*
X61800057Y-75207857D01*
X61800057Y-75207857D02*
X61895295Y-75160238D01*
X61895295Y-75160238D02*
X62038152Y-75160238D01*
X62038152Y-75160238D02*
X62133390Y-75207857D01*
X62133390Y-75207857D02*
X62181009Y-75255476D01*
X62181009Y-75255476D02*
X62228628Y-75350714D01*
X62228628Y-75350714D02*
X62228628Y-75731666D01*
X61704819Y-74874523D02*
X62704819Y-74541190D01*
X62704819Y-74541190D02*
X61704819Y-74207857D01*
X61704819Y-73969761D02*
X61704819Y-73350714D01*
X61704819Y-73350714D02*
X62085771Y-73684047D01*
X62085771Y-73684047D02*
X62085771Y-73541190D01*
X62085771Y-73541190D02*
X62133390Y-73445952D01*
X62133390Y-73445952D02*
X62181009Y-73398333D01*
X62181009Y-73398333D02*
X62276247Y-73350714D01*
X62276247Y-73350714D02*
X62514342Y-73350714D01*
X62514342Y-73350714D02*
X62609580Y-73398333D01*
X62609580Y-73398333D02*
X62657200Y-73445952D01*
X62657200Y-73445952D02*
X62704819Y-73541190D01*
X62704819Y-73541190D02*
X62704819Y-73826904D01*
X62704819Y-73826904D02*
X62657200Y-73922142D01*
X62657200Y-73922142D02*
X62609580Y-73969761D01*
D12*
%TO.C,DISPLAY1*%
X109850000Y-26640000D02*
X109550000Y-26640000D01*
X109850000Y-26640000D02*
X109850000Y-47640000D01*
X107450000Y-26640000D02*
X107050000Y-26640000D01*
X107183000Y-26640000D02*
X107183000Y-29647000D01*
X104850000Y-26640000D02*
X104450000Y-26640000D01*
X102350000Y-26640000D02*
X101950000Y-26640000D01*
X99750000Y-26640000D02*
X99350000Y-26640000D01*
X97250000Y-26640000D02*
X96850000Y-26640000D01*
X94750000Y-26640000D02*
X94350000Y-26640000D01*
X92150000Y-26640000D02*
X91750000Y-26640000D01*
X89650000Y-26640000D02*
X89250000Y-26640000D01*
X87050000Y-26640000D02*
X86650000Y-26640000D01*
X84550000Y-26640000D02*
X84150000Y-26640000D01*
X82050000Y-26640000D02*
X81650000Y-26640000D01*
X79450000Y-26640000D02*
X79050000Y-26640000D01*
X76950000Y-26640000D02*
X76550000Y-26640000D01*
X74350000Y-26640000D02*
X73950000Y-26640000D01*
X71850000Y-26640000D02*
X71450000Y-26640000D01*
X69250000Y-26640000D02*
X68850000Y-26640000D01*
X66750000Y-26640000D02*
X66350000Y-26640000D01*
X64250000Y-26640000D02*
X63850000Y-26640000D01*
X61650000Y-26640000D02*
X61250000Y-26640000D01*
X107183000Y-29647000D02*
X109850000Y-29647000D01*
X58850000Y-33440000D02*
X58850000Y-26640000D01*
X109850000Y-47640000D02*
X109550000Y-47640000D01*
D10*
X109550000Y-47640000D02*
X58850000Y-47640000D01*
D12*
X58850000Y-47640000D02*
X58850000Y-40840000D01*
D10*
X112350000Y-19840000D02*
X57150000Y-19840000D01*
X57150000Y-54440000D01*
X112350000Y-54440000D01*
X112350000Y-19840000D01*
D13*
%TO.C,SW4*%
X63250000Y-101276600D02*
X63250000Y-100276600D01*
X63250000Y-113276600D02*
X63250000Y-112276600D01*
X63250000Y-113276600D02*
X64250000Y-113276600D01*
X64250000Y-100276600D02*
X63250000Y-100276600D01*
X75250000Y-113276600D02*
X76250000Y-113276600D01*
X76250000Y-100276600D02*
X75250000Y-100276600D01*
X76250000Y-100276600D02*
X76250000Y-101276600D01*
X76250000Y-112276600D02*
X76250000Y-113276600D01*
%TO.C,SW5*%
X63250000Y-131276600D02*
X63250000Y-130276600D01*
X63250000Y-143276600D02*
X63250000Y-142276600D01*
X63250000Y-143276600D02*
X64250000Y-143276600D01*
X64250000Y-130276600D02*
X63250000Y-130276600D01*
X75250000Y-143276600D02*
X76250000Y-143276600D01*
X76250000Y-130276600D02*
X75250000Y-130276600D01*
X76250000Y-130276600D02*
X76250000Y-131276600D01*
X76250000Y-142276600D02*
X76250000Y-143276600D01*
D12*
%TO.C,RV4*%
X33380000Y-67370000D02*
X46120000Y-67370000D01*
X33380000Y-80110000D02*
X33380000Y-67370000D01*
X33380000Y-80110000D02*
X36055000Y-80110000D01*
X38365000Y-80110000D02*
X38595000Y-80110000D01*
X40906000Y-80110000D02*
X41135000Y-80110000D01*
X43445000Y-80110000D02*
X46120000Y-80110000D01*
X46120000Y-80110000D02*
X46120000Y-67370000D01*
D13*
%TO.C,SW6*%
X93250000Y-101276600D02*
X93250000Y-100276600D01*
X93250000Y-113276600D02*
X93250000Y-112276600D01*
X93250000Y-113276600D02*
X94250000Y-113276600D01*
X94250000Y-100276600D02*
X93250000Y-100276600D01*
X105250000Y-113276600D02*
X106250000Y-113276600D01*
X106250000Y-100276600D02*
X105250000Y-100276600D01*
X106250000Y-100276600D02*
X106250000Y-101276600D01*
X106250000Y-112276600D02*
X106250000Y-113276600D01*
%TO.C,SW3*%
X33250000Y-131276600D02*
X33250000Y-130276600D01*
X33250000Y-143276600D02*
X33250000Y-142276600D01*
X33250000Y-143276600D02*
X34250000Y-143276600D01*
X34250000Y-130276600D02*
X33250000Y-130276600D01*
X45250000Y-143276600D02*
X46250000Y-143276600D01*
X46250000Y-130276600D02*
X45250000Y-130276600D01*
X46250000Y-130276600D02*
X46250000Y-131276600D01*
X46250000Y-142276600D02*
X46250000Y-143276600D01*
D12*
%TO.C,RV1*%
X123380000Y-67370000D02*
X136120000Y-67370000D01*
X123380000Y-80110000D02*
X123380000Y-67370000D01*
X123380000Y-80110000D02*
X126055000Y-80110000D01*
X128365000Y-80110000D02*
X128595000Y-80110000D01*
X130906000Y-80110000D02*
X131135000Y-80110000D01*
X133445000Y-80110000D02*
X136120000Y-80110000D01*
X136120000Y-80110000D02*
X136120000Y-67370000D01*
D13*
%TO.C,SW2*%
X33250000Y-101276600D02*
X33250000Y-100276600D01*
X33250000Y-113276600D02*
X33250000Y-112276600D01*
X33250000Y-113276600D02*
X34250000Y-113276600D01*
X34250000Y-100276600D02*
X33250000Y-100276600D01*
X45250000Y-113276600D02*
X46250000Y-113276600D01*
X46250000Y-100276600D02*
X45250000Y-100276600D01*
X46250000Y-100276600D02*
X46250000Y-101276600D01*
X46250000Y-112276600D02*
X46250000Y-113276600D01*
%TO.C,SW7*%
X93250000Y-131276600D02*
X93250000Y-130276600D01*
X93250000Y-143276600D02*
X93250000Y-142276600D01*
X93250000Y-143276600D02*
X94250000Y-143276600D01*
X94250000Y-130276600D02*
X93250000Y-130276600D01*
X105250000Y-143276600D02*
X106250000Y-143276600D01*
X106250000Y-130276600D02*
X105250000Y-130276600D01*
X106250000Y-130276600D02*
X106250000Y-131276600D01*
X106250000Y-142276600D02*
X106250000Y-143276600D01*
%TO.C,SW8*%
X123250000Y-101276600D02*
X123250000Y-100276600D01*
X123250000Y-113276600D02*
X123250000Y-112276600D01*
X123250000Y-113276600D02*
X124250000Y-113276600D01*
X124250000Y-100276600D02*
X123250000Y-100276600D01*
X135250000Y-113276600D02*
X136250000Y-113276600D01*
X136250000Y-100276600D02*
X135250000Y-100276600D01*
X136250000Y-100276600D02*
X136250000Y-101276600D01*
X136250000Y-112276600D02*
X136250000Y-113276600D01*
%TO.C,SW9*%
X123250000Y-131276600D02*
X123250000Y-130276600D01*
X123250000Y-143276600D02*
X123250000Y-142276600D01*
X123250000Y-143276600D02*
X124250000Y-143276600D01*
X124250000Y-130276600D02*
X123250000Y-130276600D01*
X135250000Y-143276600D02*
X136250000Y-143276600D01*
X136250000Y-130276600D02*
X135250000Y-130276600D01*
X136250000Y-130276600D02*
X136250000Y-131276600D01*
X136250000Y-142276600D02*
X136250000Y-143276600D01*
D12*
%TO.C,RV2*%
X93380000Y-67370000D02*
X106120000Y-67370000D01*
X93380000Y-80110000D02*
X93380000Y-67370000D01*
X93380000Y-80110000D02*
X96055000Y-80110000D01*
X98365000Y-80110000D02*
X98595000Y-80110000D01*
X100906000Y-80110000D02*
X101135000Y-80110000D01*
X103445000Y-80110000D02*
X106120000Y-80110000D01*
X106120000Y-80110000D02*
X106120000Y-67370000D01*
%TO.C,RV3*%
X63380000Y-67370000D02*
X76120000Y-67370000D01*
X63380000Y-80110000D02*
X63380000Y-67370000D01*
X63380000Y-80110000D02*
X66055000Y-80110000D01*
X68365000Y-80110000D02*
X68595000Y-80110000D01*
X70906000Y-80110000D02*
X71135000Y-80110000D01*
X73445000Y-80110000D02*
X76120000Y-80110000D01*
X76120000Y-80110000D02*
X76120000Y-67370000D01*
%TD*%
M02*
